<svg width="343" height="277" viewBox="0 0 343 277" fill="none" xmlns="http://www.w3.org/2000/svg">
<g id="115">
<g id="Group 1321317606">
<g id="3" opacity="0.5">
<mask id="path-1-inside-1_172_2110" fill="white">
<path d="M339.984 276.228H2.98438V0H339.984V276.228Z"/>
</mask>
<g filter="url(#filter0_i_172_2110)">
<path d="M339.984 276.228H2.98438V0H339.984V276.228Z" fill="url(#paint0_linear_172_2110)" fill-opacity="0.01"/>
</g>
<path d="M339.984 276.228V277.228H340.984V276.228H339.984ZM2.98438 276.228H1.98438V277.228H2.98438V276.228ZM2.98438 0V-1H1.98438V0H2.98438ZM339.984 0H340.984V-1H339.984V0ZM339.984 276.228V275.228H2.98438V276.228V277.228H339.984V276.228ZM2.98438 276.228H3.98438V0H2.98438H1.98438V276.228H2.98438ZM2.98438 0V1H339.984V0V-1H2.98438V0ZM339.984 0H338.984V276.228H339.984H340.984V0H339.984Z" fill="#667FB5" fill-opacity="0.6" mask="url(#path-1-inside-1_172_2110)"/>
</g>
<g id="2" opacity="0.4">
<mask id="path-3-inside-2_172_2110" fill="white">
<path d="M342.648 270.663H0V3.2832H342.648V270.663Z"/>
</mask>
<g filter="url(#filter1_i_172_2110)">
<path d="M342.648 270.663H0V3.2832H342.648V270.663Z" fill="url(#paint1_linear_172_2110)" fill-opacity="0.2"/>
</g>
<path d="M342.648 270.663V271.663H343.648V270.663H342.648ZM0 270.663H-1V271.663H0V270.663ZM0 3.2832V2.2832H-1V3.2832H0ZM342.648 3.2832H343.648V2.2832H342.648V3.2832ZM342.648 270.663V269.663H0V270.663V271.663H342.648V270.663ZM0 270.663H1V3.2832H0H-1V270.663H0ZM0 3.2832V4.2832H342.648V3.2832V2.2832H0V3.2832ZM342.648 3.2832H341.648V270.663H342.648H343.648V3.2832H342.648Z" fill="#668AB5" mask="url(#path-3-inside-2_172_2110)"/>
</g>
<g id="Frame 48096535">
<g id="1">
<mask id="mask0_172_2110" style="mask-type:alpha" maskUnits="userSpaceOnUse" x="2" y="6" width="338" height="266">
<g id="1_2">
<mask id="path-5-inside-3_172_2110" fill="white">
<path d="M339.984 271.04H2.98438V6.04004H339.984V271.04Z"/>
</mask>
<path d="M339.984 271.04H2.98438V6.04004H339.984V271.04Z" fill="url(#paint2_linear_172_2110)"/>
<path d="M339.984 271.04V272.04H340.984V271.04H339.984ZM2.98438 271.04H1.98438V272.04H2.98438V271.04ZM2.98438 6.04004V5.04004H1.98438V6.04004H2.98438ZM339.984 6.04004H340.984V5.04004H339.984V6.04004ZM339.984 271.04V270.04H2.98438V271.04V272.04H339.984V271.04ZM2.98438 271.04H3.98438V6.04004H2.98438H1.98438V271.04H2.98438ZM2.98438 6.04004V7.04004H339.984V6.04004V5.04004H2.98438V6.04004ZM339.984 6.04004H338.984V271.04H339.984H340.984V6.04004H339.984Z" fill="#669EB5" mask="url(#path-5-inside-3_172_2110)"/>
</g>
</mask>
<g mask="url(#mask0_172_2110)">
<g id="2_2">
<mask id="path-7-inside-4_172_2110" fill="white">
<path d="M340 271H3V6H340V271Z"/>
</mask>
<g filter="url(#filter2_i_172_2110)">
<path d="M340 271H3V6H340V271Z" fill="url(#paint3_linear_172_2110)" fill-opacity="0.95"/>
</g>
<path d="M340 271V272H341V271H340ZM3 271H2V272H3V271ZM3 6V5H2V6H3ZM340 6H341V5H340V6ZM340 271V270H3V271V272H340V271ZM3 271H4V6H3H2V271H3ZM3 6V7H340V6V5H3V6ZM340 6H339V271H340H341V6H340Z" fill="#668AB5" mask="url(#path-7-inside-4_172_2110)"/>
</g>
<rect id="&#230;&#160;&#135;&#233;&#162;&#152;&#232;&#131;&#140;&#230;&#153;&#175;" x="2.85352" y="6" width="337" height="36" fill="url(#paint4_linear_172_2110)"/>
<g id="&#230;&#168;&#161;&#231;&#179;&#138;" filter="url(#filter3_f_172_2110)">
<ellipse cx="171.5" cy="24.54" rx="80.5" ry="12.5" fill="#9FC6ED"/>
</g>
<path id="&#231;&#186;&#185;&#231;&#144;&#134;" opacity="0.2" d="M30.7988 -472.035L-435.065 350.155M34.2789 -470.063L-431.585 352.127M37.7591 -468.091L-428.105 354.099M41.2393 -466.119L-424.624 356.07M44.7196 -464.147L-421.144 358.042M48.1996 -462.175L-417.664 360.014M51.6798 -460.203L-414.184 361.986M55.16 -458.232L-410.704 363.958M58.6401 -456.26L-407.224 365.93M62.1203 -454.288L-403.743 367.902M65.6005 -452.316L-400.263 369.874M69.0806 -450.344L-396.783 371.846M72.5608 -448.372L-393.303 373.818M76.041 -446.4L-389.823 375.79M79.5213 -444.428L-386.343 377.761M83.0013 -442.456L-382.862 379.733M86.4815 -440.484L-379.382 381.705M89.9617 -438.513L-375.902 383.677M93.4418 -436.54L-372.422 385.649M96.922 -434.569L-368.942 387.621M100.402 -432.597L-365.462 389.593M103.882 -430.625L-361.982 391.565M107.362 -428.653L-358.501 393.537M110.843 -426.681L-355.021 395.509M114.323 -424.709L-351.541 397.481M117.803 -422.737L-348.061 399.453M121.283 -420.765L-344.581 401.424M124.763 -418.793L-341.1 403.396M128.243 -416.821L-337.62 405.368M131.724 -414.85L-334.14 407.34M135.204 -412.878L-330.66 409.312M138.684 -410.906L-327.18 411.284M142.164 -408.934L-323.7 413.256M145.644 -406.962L-320.219 415.228M149.124 -404.99L-316.739 417.2M152.605 -403.018L-313.259 419.172M156.085 -401.046L-309.779 421.143M159.565 -399.074L-306.299 423.115M163.045 -397.102L-302.819 425.087M166.525 -395.13L-299.339 427.059M170.006 -393.159L-295.858 429.031M173.486 -391.187L-292.378 431.003M176.966 -389.215L-288.898 432.975M180.446 -387.243L-285.418 434.947M183.926 -385.271L-281.938 436.919M187.406 -383.299L-278.457 438.891M190.887 -381.327L-274.977 440.863M194.367 -379.355L-271.497 442.834M197.847 -377.383L-268.017 444.806M201.327 -375.411L-264.537 446.778M204.807 -373.44L-261.057 448.75M208.287 -371.467L-257.577 450.722M211.768 -369.496L-254.096 452.694M215.248 -367.524L-250.616 454.666M218.728 -365.552L-247.136 456.638M222.208 -363.58L-243.656 458.61M225.688 -361.608L-240.176 460.582M229.168 -359.636L-236.696 462.554M232.649 -357.664L-233.215 464.526M236.129 -355.692L-229.735 466.497M239.609 -353.72L-226.255 468.469M243.089 -351.748L-222.775 470.441M246.569 -349.776L-219.295 472.413M250.049 -347.805L-215.814 474.385M253.53 -345.833L-212.334 476.357M257.01 -343.861L-208.854 478.329M260.49 -341.889L-205.374 480.301M263.97 -339.917L-201.894 482.273M267.45 -337.945L-198.414 484.245M270.93 -335.973L-194.933 486.217M274.411 -334.001L-191.453 488.188M277.891 -332.029L-187.973 490.16M281.371 -330.057L-184.493 492.132M284.851 -328.086L-181.013 494.104M288.331 -326.113L-177.533 496.076M291.811 -324.142L-174.052 498.048M295.292 -322.17L-170.572 500.02M298.772 -320.198L-167.092 501.992M302.252 -318.226L-163.612 503.964M305.732 -316.254L-160.132 505.936M309.212 -314.282L-156.652 507.908M312.692 -312.31L-153.171 509.88M316.173 -310.338L-149.691 511.851M319.653 -308.366L-146.211 513.823M323.133 -306.394L-142.731 515.795M326.613 -304.423L-139.251 517.767M330.093 -302.451L-135.771 519.739M333.573 -300.479L-132.29 521.711M337.054 -298.507L-128.81 523.683M340.534 -296.535L-125.33 525.655M344.014 -294.563L-121.85 527.627M347.494 -292.591L-118.37 529.599M350.974 -290.619L-114.89 531.571M354.454 -288.647L-111.409 533.542M357.935 -286.675L-107.929 535.514M361.415 -284.703L-104.449 537.486M364.895 -282.732L-100.969 539.458M368.375 -280.76L-97.4888 541.43M371.855 -278.788L-94.0085 543.402M375.335 -276.816L-90.5284 545.374M378.816 -274.844L-87.0483 547.346M382.296 -272.872L-83.5681 549.318M385.776 -270.9L-80.0879 551.29M389.256 -268.928L-76.6077 553.262M392.736 -266.956L-73.1276 555.233M396.216 -264.984L-69.6474 557.205M399.697 -263.013L-66.1672 559.177M403.177 -261.04L-62.6871 561.149M406.657 -259.069L-59.2069 563.121M410.137 -257.097L-55.7267 565.093M413.617 -255.125L-52.2466 567.065M417.097 -253.153L-48.7664 569.037M420.578 -251.181L-45.2862 571.009M424.058 -249.209L-41.806 572.981M427.538 -247.237L-38.3259 574.953M431.018 -245.265L-34.8457 576.924M434.498 -243.293L-31.3655 578.896M437.978 -241.321L-27.8854 580.868M441.459 -239.35L-24.4051 582.84M444.939 -237.378L-20.925 584.812M448.419 -235.406L-17.4449 586.784M451.899 -233.434L-13.9647 588.756M455.379 -231.462L-10.4845 590.728M458.859 -229.49L-7.00442 592.7M462.34 -227.518L-3.52419 594.672M465.82 -225.546L-0.0440168 596.644M469.3 -223.574L3.43612 598.616M472.78 -221.602L6.91632 600.587M476.26 -219.63L10.3964 602.559M479.741 -217.659L13.8767 604.531M483.221 -215.687L17.3568 606.503M486.701 -213.715L20.837 608.475M490.181 -211.743L24.3172 610.447M493.661 -209.771L27.7972 612.419M497.141 -207.799L31.2775 614.391M500.621 -205.827L34.7577 616.363M504.102 -203.855L38.2379 618.334M507.582 -201.883L41.718 620.307M511.062 -199.911L45.1981 622.278M514.542 -197.939L48.6784 624.25M518.022 -195.967L52.1585 626.222M521.503 -193.996L55.6387 628.194M524.983 -192.024L59.1189 630.166M528.463 -190.052L62.5989 632.138M531.943 -188.08L66.0791 634.11M535.423 -186.108L69.5594 636.082M538.903 -184.136L73.0395 638.054M542.383 -182.164L76.5197 640.026M545.864 -180.192L79.9998 641.997M549.344 -178.22L83.4799 643.969M552.824 -176.248L86.9602 645.941M556.304 -174.276L90.4404 647.913M559.784 -172.305L93.9206 649.885M563.264 -170.333L97.4006 651.857M566.745 -168.361L100.881 653.829M570.225 -166.389L104.361 655.801M573.705 -164.417L107.841 657.773M577.185 -162.445L111.321 659.745M580.665 -160.473L114.801 661.717M584.145 -158.501L118.282 663.689M587.626 -156.529L121.762 665.66M591.106 -154.557L125.242 667.632M594.586 -152.586L128.722 669.604M598.066 -150.613L132.202 671.576M601.546 -148.642L135.683 673.548M605.027 -146.67L139.163 675.52M608.507 -144.698L142.643 677.492M611.987 -142.726L146.123 679.464M615.467 -140.754L149.603 681.436M618.947 -138.782L153.083 683.408M622.427 -136.81L156.564 685.38M625.908 -134.838L160.044 687.351M629.388 -132.866L163.524 689.323M632.868 -130.894L167.004 691.295M636.348 -128.923L170.484 693.267M639.828 -126.951L173.964 695.239M643.308 -124.979L177.445 697.211M646.789 -123.007L180.925 699.183M650.269 -121.035L184.405 701.155M653.749 -119.063L187.885 703.127M657.229 -117.091L191.365 705.099M660.709 -115.119L194.845 707.07M664.189 -113.147L198.326 709.042M667.669 -111.175L201.806 711.014M671.15 -109.203L205.286 712.986M674.63 -107.231L208.766 714.958M678.11 -105.26L212.246 716.93M681.59 -103.288L215.726 718.902M685.07 -101.316L219.207 720.874M688.55 -99.3438L222.687 722.846M692.031 -97.372L226.167 724.818M695.511 -95.4001L229.647 726.79M698.991 -93.4283L233.127 728.761M702.471 -91.4562L236.607 730.733M705.951 -89.4844L240.088 732.705M709.431 -87.5123L243.568 734.677M712.912 -85.5404L247.048 736.649M716.392 -83.5686L250.528 738.621M719.872 -81.5968L254.008 740.593M723.352 -79.6247L257.488 742.565M726.832 -77.6529L260.969 744.537M730.313 -75.681L264.449 746.509M733.793 -73.7089L267.929 748.481M737.273 -71.7371L271.409 750.453M740.753 -69.7653L274.889 752.424M744.233 -67.7932L278.369 754.396M747.713 -65.8214L281.85 756.368M751.194 -63.8495L285.33 758.34M754.674 -61.8777L288.81 760.312M758.154 -59.9056L292.29 762.284M761.634 -57.9338L295.77 764.256M765.114 -55.9619L299.25 766.228M768.594 -53.9898L302.731 768.2M772.075 -52.018L306.211 770.172M775.555 -50.0462L309.691 772.143M779.035 -48.0741L313.171 774.115" stroke="url(#paint5_radial_172_2110)" stroke-width="2"/>
</g>
</g>
<g id="&#229;&#183;&#166;&#228;&#184;&#138;&#232;&#167;&#146;" filter="url(#filter4_d_172_2110)">
<mask id="mask1_172_2110" style="mask-type:alpha" maskUnits="userSpaceOnUse" x="2" y="6" width="31" height="30">
<path id="Subtract" d="M29.4844 6.04004L32.4844 9.04004H6.98438C6.43209 9.04004 5.98438 9.48775 5.98438 10.04V35.54L2.98438 32.54V8.04004C2.98438 6.93547 3.87981 6.04004 4.98438 6.04004H29.4844Z" fill="url(#paint6_linear_172_2110)"/>
</mask>
<g mask="url(#mask1_172_2110)">
<path id="Subtract_2" d="M29.4844 6.04004L32.4844 9.04004H6.98438C6.43209 9.04004 5.98438 9.48775 5.98438 10.04V35.54L2.98438 32.54V8.04004C2.98438 6.93547 3.87981 6.04004 4.98438 6.04004H29.4844Z" fill="url(#paint7_linear_172_2110)"/>
<path id="Rectangle 5024" d="M32.4844 7.54004H5.48438C4.93209 7.54004 4.48438 7.98775 4.48438 8.54004V35.54" stroke="url(#paint8_linear_172_2110)"/>
</g>
</g>
<g id="&#228;&#184;&#138;&#231;&#186;&#191;" filter="url(#filter5_d_172_2110)">
<path id="Rectangle 5031" d="M45.9844 6.04004H47.9844V8.04004L45.9844 6.04004Z" fill="#F1F8FF"/>
<rect id="Rectangle 5030" x="47.9844" y="6.04004" width="247" height="2" fill="url(#paint9_linear_172_2110)"/>
<path id="Rectangle 5032" d="M296.984 6.04004H294.984V8.04004L296.984 6.04004Z" fill="#F1F8FF"/>
</g>
<g id="&#229;&#143;&#179;&#228;&#184;&#138;&#232;&#167;&#146;" filter="url(#filter6_d_172_2110)">
<mask id="mask2_172_2110" style="mask-type:alpha" maskUnits="userSpaceOnUse" x="310" y="6" width="30" height="30">
<path id="Subtract_3" d="M313.484 6.04004L310.484 9.04004H335.984C336.537 9.04004 336.984 9.48775 336.984 10.04V35.54L339.984 32.54V8.04004C339.984 6.93547 339.089 6.04004 337.984 6.04004H313.484Z" fill="url(#paint10_linear_172_2110)"/>
</mask>
<g mask="url(#mask2_172_2110)">
<path id="Subtract_4" d="M313.484 6.04004L310.484 9.04004H335.984C336.537 9.04004 336.984 9.48775 336.984 10.04V35.54L339.984 32.54V8.04004C339.984 6.93547 339.089 6.04004 337.984 6.04004H313.484Z" fill="url(#paint11_linear_172_2110)"/>
<path id="Rectangle 5024_2" d="M310.484 7.54004H337.484C338.037 7.54004 338.484 7.98775 338.484 8.54004V35.54" stroke="url(#paint12_linear_172_2110)"/>
</g>
</g>
<g id="&#229;&#183;&#166;&#228;&#184;&#139;&#232;&#167;&#146;">
<g id="Mask group" filter="url(#filter7_d_172_2110)">
<mask id="mask3_172_2110" style="mask-type:alpha" maskUnits="userSpaceOnUse" x="2" y="241" width="31" height="30">
<path id="Subtract_5" d="M29.4844 270.54L32.4844 267.54H6.98438C6.43209 267.54 5.98438 267.092 5.98438 266.54V241.04L2.98438 244.04V268.54C2.98438 269.645 3.87981 270.54 4.98438 270.54H29.4844Z" fill="url(#paint13_linear_172_2110)"/>
</mask>
<g mask="url(#mask3_172_2110)">
<path id="Subtract_6" d="M29.4844 270.54L32.4844 267.54H6.98438C6.43209 267.54 5.98438 267.092 5.98438 266.54V241.04L2.98438 244.04V268.54C2.98438 269.645 3.87981 270.54 4.98438 270.54H29.4844Z" fill="url(#paint14_linear_172_2110)"/>
<path id="Rectangle 5024_3" d="M32.4844 269.04H5.48438C4.93209 269.04 4.48438 268.592 4.48438 268.04V241.04" stroke="url(#paint15_linear_172_2110)"/>
</g>
</g>
<g id="Frame 48096532" filter="url(#filter8_d_172_2110)">
<path id="Rectangle 5031_2" d="M36.4844 270.54H38.4844V268.54L36.4844 270.54Z" fill="#DBEBFF"/>
<rect id="Rectangle 5030_2" width="26" height="2" transform="matrix(1 0 0 -1 38.4844 270.54)" fill="url(#paint16_linear_172_2110)"/>
<path id="Rectangle 5032_2" d="M66.4844 270.54H64.4844V268.54L66.4844 270.54Z" fill="#B8DCFF"/>
</g>
</g>
<g id="&#229;&#143;&#179;&#228;&#184;&#139;&#232;&#167;&#146;">
<g id="Frame 48096533" filter="url(#filter9_d_172_2110)">
<path id="Rectangle 5031_3" d="M304.854 270.54H302.854V268.54L304.854 270.54Z" fill="#DBEBFF"/>
<rect id="Rectangle 5030_3" x="302.854" y="270.54" width="26" height="2" transform="rotate(180 302.854 270.54)" fill="url(#paint17_linear_172_2110)"/>
<path id="Rectangle 5032_3" d="M274.854 270.54H276.854V268.54L274.854 270.54Z" fill="#B8DCFF"/>
</g>
<g id="Mask group_2" filter="url(#filter10_d_172_2110)">
<mask id="mask4_172_2110" style="mask-type:alpha" maskUnits="userSpaceOnUse" x="310" y="241" width="31" height="30">
<path id="Subtract_7" d="M313.854 270.54L310.854 267.54H336.354C336.906 267.54 337.354 267.092 337.354 266.54V241.04L340.354 244.04V268.54C340.354 269.645 339.458 270.54 338.354 270.54H313.854Z" fill="url(#paint18_linear_172_2110)"/>
</mask>
<g mask="url(#mask4_172_2110)">
<path id="Subtract_8" d="M313.854 270.54L310.854 267.54H336.354C336.906 267.54 337.354 267.092 337.354 266.54V241.04L340.354 244.04V268.54C340.354 269.645 339.458 270.54 338.354 270.54H313.854Z" fill="url(#paint19_linear_172_2110)"/>
<path id="Rectangle 5024_4" d="M310.854 269.04H337.854C338.406 269.04 338.854 268.592 338.854 268.04V241.04" stroke="url(#paint20_linear_172_2110)"/>
</g>
</g>
</g>
<g id="&#229;&#183;&#166;&#231;&#186;&#191;" filter="url(#filter11_d_172_2110)">
<path id="Rectangle 5031_4" d="M2.85352 226.04L2.85352 224.04L4.85352 224.04L2.85352 226.04Z" fill="#8ABCE2"/>
<rect id="Rectangle 5030_4" x="2.85352" y="224.04" width="173" height="2" transform="rotate(-90 2.85352 224.04)" fill="url(#paint21_linear_172_2110)"/>
<path id="Rectangle 5032_4" d="M2.85352 49.04L2.85352 51.04L4.85352 51.04L2.85352 49.04Z" fill="#C0D4FF"/>
</g>
<g id="&#229;&#143;&#179;&#231;&#186;&#191;" filter="url(#filter12_d_172_2110)">
<path id="Rectangle 5031_5" d="M339.854 226.04L339.854 224.04L337.854 224.04L339.854 226.04Z" fill="#8ABCE2"/>
<rect id="Rectangle 5030_5" width="173" height="2" transform="matrix(5.11201e-08 -1 -1 -3.73764e-08 339.854 224.04)" fill="url(#paint22_linear_172_2110)"/>
<path id="Rectangle 5032_5" d="M339.854 49.04L339.854 51.04L337.854 51.04L339.854 49.04Z" fill="#C0D4FF"/>
</g>
</g>
</g>
</g>
<defs>
<filter id="filter0_i_172_2110" x="2.98438" y="0" width="337" height="276.228" filterUnits="userSpaceOnUse" color-interpolation-filters="sRGB">
<feFlood flood-opacity="0" result="BackgroundImageFix"/>
<feBlend mode="normal" in="SourceGraphic" in2="BackgroundImageFix" result="shape"/>
<feColorMatrix in="SourceAlpha" type="matrix" values="0 0 0 0 0 0 0 0 0 0 0 0 0 0 0 0 0 0 127 0" result="hardAlpha"/>
<feOffset/>
<feGaussianBlur stdDeviation="2.5"/>
<feComposite in2="hardAlpha" operator="arithmetic" k2="-1" k3="1"/>
<feColorMatrix type="matrix" values="0 0 0 0 0 0 0 0 0 0.25 0 0 0 0 1 0 0 0 1 0"/>
<feBlend mode="normal" in2="shape" result="effect1_innerShadow_172_2110"/>
</filter>
<filter id="filter1_i_172_2110" x="0" y="3.2832" width="342.648" height="267.38" filterUnits="userSpaceOnUse" color-interpolation-filters="sRGB">
<feFlood flood-opacity="0" result="BackgroundImageFix"/>
<feBlend mode="normal" in="SourceGraphic" in2="BackgroundImageFix" result="shape"/>
<feColorMatrix in="SourceAlpha" type="matrix" values="0 0 0 0 0 0 0 0 0 0 0 0 0 0 0 0 0 0 127 0" result="hardAlpha"/>
<feOffset/>
<feGaussianBlur stdDeviation="20"/>
<feComposite in2="hardAlpha" operator="arithmetic" k2="-1" k3="1"/>
<feColorMatrix type="matrix" values="0 0 0 0 0 0 0 0 0 0.148985 0 0 0 0 0.812647 0 0 0 1 0"/>
<feBlend mode="normal" in2="shape" result="effect1_innerShadow_172_2110"/>
</filter>
<filter id="filter2_i_172_2110" x="3" y="6" width="337" height="265" filterUnits="userSpaceOnUse" color-interpolation-filters="sRGB">
<feFlood flood-opacity="0" result="BackgroundImageFix"/>
<feBlend mode="normal" in="SourceGraphic" in2="BackgroundImageFix" result="shape"/>
<feColorMatrix in="SourceAlpha" type="matrix" values="0 0 0 0 0 0 0 0 0 0 0 0 0 0 0 0 0 0 127 0" result="hardAlpha"/>
<feOffset/>
<feGaussianBlur stdDeviation="20"/>
<feComposite in2="hardAlpha" operator="arithmetic" k2="-1" k3="1"/>
<feColorMatrix type="matrix" values="0 0 0 0 0 0 0 0 0 0.257338 0 0 0 0 0.812647 0 0 0 1 0"/>
<feBlend mode="normal" in2="shape" result="effect1_innerShadow_172_2110"/>
</filter>
<filter id="filter3_f_172_2110" x="69" y="-9.95996" width="205" height="69" filterUnits="userSpaceOnUse" color-interpolation-filters="sRGB">
<feFlood flood-opacity="0" result="BackgroundImageFix"/>
<feBlend mode="normal" in="SourceGraphic" in2="BackgroundImageFix" result="shape"/>
<feGaussianBlur stdDeviation="11" result="effect1_foregroundBlur_172_2110"/>
</filter>
<filter id="filter4_d_172_2110" x="0.984375" y="6.04004" width="33.5" height="33.5" filterUnits="userSpaceOnUse" color-interpolation-filters="sRGB">
<feFlood flood-opacity="0" result="BackgroundImageFix"/>
<feColorMatrix in="SourceAlpha" type="matrix" values="0 0 0 0 0 0 0 0 0 0 0 0 0 0 0 0 0 0 127 0" result="hardAlpha"/>
<feOffset dy="2"/>
<feGaussianBlur stdDeviation="1"/>
<feComposite in2="hardAlpha" operator="out"/>
<feColorMatrix type="matrix" values="0 0 0 0 0 0 0 0 0 0.282353 0 0 0 0 0.776471 0 0 0 0.7 0"/>
<feBlend mode="normal" in2="BackgroundImageFix" result="effect1_dropShadow_172_2110"/>
<feBlend mode="normal" in="SourceGraphic" in2="effect1_dropShadow_172_2110" result="shape"/>
</filter>
<filter id="filter5_d_172_2110" x="44.9844" y="6.04004" width="253" height="5" filterUnits="userSpaceOnUse" color-interpolation-filters="sRGB">
<feFlood flood-opacity="0" result="BackgroundImageFix"/>
<feColorMatrix in="SourceAlpha" type="matrix" values="0 0 0 0 0 0 0 0 0 0 0 0 0 0 0 0 0 0 127 0" result="hardAlpha"/>
<feOffset dy="2"/>
<feGaussianBlur stdDeviation="0.5"/>
<feComposite in2="hardAlpha" operator="out"/>
<feColorMatrix type="matrix" values="0 0 0 0 0 0 0 0 0 0.0729508 0 0 0 0 0.312646 0 0 0 0.8 0"/>
<feBlend mode="normal" in2="BackgroundImageFix" result="effect1_dropShadow_172_2110"/>
<feBlend mode="normal" in="SourceGraphic" in2="effect1_dropShadow_172_2110" result="shape"/>
</filter>
<filter id="filter6_d_172_2110" x="308.484" y="6.04004" width="33.5" height="33.5" filterUnits="userSpaceOnUse" color-interpolation-filters="sRGB">
<feFlood flood-opacity="0" result="BackgroundImageFix"/>
<feColorMatrix in="SourceAlpha" type="matrix" values="0 0 0 0 0 0 0 0 0 0 0 0 0 0 0 0 0 0 127 0" result="hardAlpha"/>
<feOffset dy="2"/>
<feGaussianBlur stdDeviation="1"/>
<feComposite in2="hardAlpha" operator="out"/>
<feColorMatrix type="matrix" values="0 0 0 0 0 0 0 0 0 0.0500865 0 0 0 0 0.429313 0 0 0 0.7 0"/>
<feBlend mode="normal" in2="BackgroundImageFix" result="effect1_dropShadow_172_2110"/>
<feBlend mode="normal" in="SourceGraphic" in2="effect1_dropShadow_172_2110" result="shape"/>
</filter>
<filter id="filter7_d_172_2110" x="0.984375" y="235.04" width="37.5" height="37.5" filterUnits="userSpaceOnUse" color-interpolation-filters="sRGB">
<feFlood flood-opacity="0" result="BackgroundImageFix"/>
<feColorMatrix in="SourceAlpha" type="matrix" values="0 0 0 0 0 0 0 0 0 0 0 0 0 0 0 0 0 0 127 0" result="hardAlpha"/>
<feOffset dx="2" dy="-2"/>
<feGaussianBlur stdDeviation="2"/>
<feComposite in2="hardAlpha" operator="out"/>
<feColorMatrix type="matrix" values="0 0 0 0 0 0 0 0 0 0.284229 0 0 0 0 0.775171 0 0 0 1 0"/>
<feBlend mode="normal" in2="BackgroundImageFix" result="effect1_dropShadow_172_2110"/>
<feBlend mode="normal" in="SourceGraphic" in2="effect1_dropShadow_172_2110" result="shape"/>
</filter>
<filter id="filter8_d_172_2110" x="35.4844" y="265.54" width="32" height="5" filterUnits="userSpaceOnUse" color-interpolation-filters="sRGB">
<feFlood flood-opacity="0" result="BackgroundImageFix"/>
<feColorMatrix in="SourceAlpha" type="matrix" values="0 0 0 0 0 0 0 0 0 0 0 0 0 0 0 0 0 0 127 0" result="hardAlpha"/>
<feOffset dy="-2"/>
<feGaussianBlur stdDeviation="0.5"/>
<feComposite in2="hardAlpha" operator="out"/>
<feColorMatrix type="matrix" values="0 0 0 0 0 0 0 0 0 0.211248 0 0 0 0 0.312646 0 0 0 0.8 0"/>
<feBlend mode="normal" in2="BackgroundImageFix" result="effect1_dropShadow_172_2110"/>
<feBlend mode="normal" in="SourceGraphic" in2="effect1_dropShadow_172_2110" result="shape"/>
</filter>
<filter id="filter9_d_172_2110" x="273.854" y="265.54" width="32" height="5" filterUnits="userSpaceOnUse" color-interpolation-filters="sRGB">
<feFlood flood-opacity="0" result="BackgroundImageFix"/>
<feColorMatrix in="SourceAlpha" type="matrix" values="0 0 0 0 0 0 0 0 0 0 0 0 0 0 0 0 0 0 127 0" result="hardAlpha"/>
<feOffset dy="-2"/>
<feGaussianBlur stdDeviation="0.5"/>
<feComposite in2="hardAlpha" operator="out"/>
<feColorMatrix type="matrix" values="0 0 0 0 0 0 0 0 0 0.211248 0 0 0 0 0.312646 0 0 0 0.8 0"/>
<feBlend mode="normal" in2="BackgroundImageFix" result="effect1_dropShadow_172_2110"/>
<feBlend mode="normal" in="SourceGraphic" in2="effect1_dropShadow_172_2110" result="shape"/>
</filter>
<filter id="filter10_d_172_2110" x="304.854" y="235.04" width="37.5" height="37.5" filterUnits="userSpaceOnUse" color-interpolation-filters="sRGB">
<feFlood flood-opacity="0" result="BackgroundImageFix"/>
<feColorMatrix in="SourceAlpha" type="matrix" values="0 0 0 0 0 0 0 0 0 0 0 0 0 0 0 0 0 0 127 0" result="hardAlpha"/>
<feOffset dx="-2" dy="-2"/>
<feGaussianBlur stdDeviation="2"/>
<feComposite in2="hardAlpha" operator="out"/>
<feColorMatrix type="matrix" values="0 0 0 0 0 0 0 0 0 0.282353 0 0 0 0 0.776471 0 0 0 1 0"/>
<feBlend mode="normal" in2="BackgroundImageFix" result="effect1_dropShadow_172_2110"/>
<feBlend mode="normal" in="SourceGraphic" in2="effect1_dropShadow_172_2110" result="shape"/>
</filter>
<filter id="filter11_d_172_2110" x="2.85352" y="48.04" width="4" height="179" filterUnits="userSpaceOnUse" color-interpolation-filters="sRGB">
<feFlood flood-opacity="0" result="BackgroundImageFix"/>
<feColorMatrix in="SourceAlpha" type="matrix" values="0 0 0 0 0 0 0 0 0 0 0 0 0 0 0 0 0 0 127 0" result="hardAlpha"/>
<feOffset dx="1"/>
<feGaussianBlur stdDeviation="0.5"/>
<feComposite in2="hardAlpha" operator="out"/>
<feColorMatrix type="matrix" values="0 0 0 0 0 0 0 0 0 0.0521077 0 0 0 0 0.312646 0 0 0 0.5 0"/>
<feBlend mode="normal" in2="BackgroundImageFix" result="effect1_dropShadow_172_2110"/>
<feBlend mode="normal" in="SourceGraphic" in2="effect1_dropShadow_172_2110" result="shape"/>
</filter>
<filter id="filter12_d_172_2110" x="335.854" y="48.04" width="4" height="179" filterUnits="userSpaceOnUse" color-interpolation-filters="sRGB">
<feFlood flood-opacity="0" result="BackgroundImageFix"/>
<feColorMatrix in="SourceAlpha" type="matrix" values="0 0 0 0 0 0 0 0 0 0 0 0 0 0 0 0 0 0 127 0" result="hardAlpha"/>
<feOffset dx="-1"/>
<feGaussianBlur stdDeviation="0.5"/>
<feComposite in2="hardAlpha" operator="out"/>
<feColorMatrix type="matrix" values="0 0 0 0 0 0 0 0 0 0.0521077 0 0 0 0 0.312646 0 0 0 0.5 0"/>
<feBlend mode="normal" in2="BackgroundImageFix" result="effect1_dropShadow_172_2110"/>
<feBlend mode="normal" in="SourceGraphic" in2="effect1_dropShadow_172_2110" result="shape"/>
</filter>
<linearGradient id="paint0_linear_172_2110" x1="171.484" y1="9.59506" x2="171.484" y2="276.228" gradientUnits="userSpaceOnUse">
<stop stop-color="#205E8D"/>
<stop offset="0.74489" stop-color="#091423"/>
<stop offset="1" stop-color="#091423"/>
</linearGradient>
<linearGradient id="paint1_linear_172_2110" x1="171.568" y1="8.03362" x2="171.568" y2="270.663" gradientUnits="userSpaceOnUse">
<stop stop-color="#09173B"/>
<stop offset="0.74489" stop-color="#091323"/>
<stop offset="1" stop-color="#091223"/>
</linearGradient>
<linearGradient id="paint2_linear_172_2110" x1="171.484" y1="6.04004" x2="171.484" y2="271.04" gradientUnits="userSpaceOnUse">
<stop stop-color="#206A8D"/>
<stop offset="0.74489" stop-color="#091523"/>
<stop offset="1" stop-color="#091523"/>
</linearGradient>
<linearGradient id="paint3_linear_172_2110" x1="171.484" y1="6.03684" x2="171.484" y2="271.037" gradientUnits="userSpaceOnUse">
<stop stop-color="#20588D"/>
<stop offset="0.639099" stop-color="#030E1A"/>
<stop offset="0.74489" stop-color="#030D1A"/>
<stop offset="1" stop-color="#091623"/>
</linearGradient>
<linearGradient id="paint4_linear_172_2110" x1="171.354" y1="6" x2="171.354" y2="42" gradientUnits="userSpaceOnUse">
<stop stop-color="#1B6DBE"/>
<stop offset="1" stop-color="#2F61A7"/>
</linearGradient>
<radialGradient id="paint5_radial_172_2110" cx="0" cy="0" r="1" gradientUnits="userSpaceOnUse" gradientTransform="translate(165 59.9997) rotate(90.7098) scale(282.522 257.5)">
<stop stop-color="#23417D"/>
<stop offset="1" stop-color="#234F7D" stop-opacity="0"/>
</radialGradient>
<linearGradient id="paint6_linear_172_2110" x1="32.976" y1="5.54837" x2="2.98438" y2="37.015" gradientUnits="userSpaceOnUse">
<stop stop-color="#EBFFFF"/>
<stop offset="0.508235" stop-color="#B4FBFF"/>
<stop offset="1" stop-color="#5DCEFC" stop-opacity="0.48"/>
</linearGradient>
<linearGradient id="paint7_linear_172_2110" x1="32.976" y1="5.54837" x2="2.98438" y2="37.015" gradientUnits="userSpaceOnUse">
<stop stop-color="#EBF4FF"/>
<stop offset="0.448811" stop-color="#B4E4FF"/>
<stop offset="0.573934" stop-color="#3389EC"/>
<stop offset="1" stop-color="#5D9AFC" stop-opacity="0.48"/>
</linearGradient>
<linearGradient id="paint8_linear_172_2110" x1="32.951" y1="7.07337" x2="4.48438" y2="36.94" gradientUnits="userSpaceOnUse">
<stop stop-color="#BDD4EF"/>
<stop offset="0.688032" stop-color="#1073C4"/>
<stop offset="1" stop-color="#1957BB"/>
</linearGradient>
<linearGradient id="paint9_linear_172_2110" x1="47.9844" y1="7.04005" x2="294.984" y2="7.04005" gradientUnits="userSpaceOnUse">
<stop stop-color="#F1F7FF"/>
<stop offset="0.166667" stop-color="#F0F3FF"/>
<stop offset="0.333333" stop-color="#D4E8FF"/>
<stop offset="0.5" stop-color="#D6E6FF"/>
<stop offset="0.666667" stop-color="#D4E0FF"/>
<stop offset="0.833333" stop-color="#F0F8FF"/>
<stop offset="1" stop-color="#F1F7FF"/>
</linearGradient>
<linearGradient id="paint10_linear_172_2110" x1="309.993" y1="5.54837" x2="339.984" y2="37.015" gradientUnits="userSpaceOnUse">
<stop stop-color="#EBFFFF"/>
<stop offset="0.508235" stop-color="#B4FBFF"/>
<stop offset="1" stop-color="#5DCEFC" stop-opacity="0.48"/>
</linearGradient>
<linearGradient id="paint11_linear_172_2110" x1="309.993" y1="5.54837" x2="339.984" y2="37.015" gradientUnits="userSpaceOnUse">
<stop stop-color="#EBF4FF"/>
<stop offset="0.448811" stop-color="#B4E4FF"/>
<stop offset="0.573934" stop-color="#3389EC"/>
<stop offset="1" stop-color="#5D9AFC" stop-opacity="0.48"/>
</linearGradient>
<linearGradient id="paint12_linear_172_2110" x1="310.018" y1="7.07337" x2="338.484" y2="36.94" gradientUnits="userSpaceOnUse">
<stop stop-color="#BDD4EF"/>
<stop offset="0.688032" stop-color="#1073C4"/>
<stop offset="1" stop-color="#1957BB"/>
</linearGradient>
<linearGradient id="paint13_linear_172_2110" x1="32.976" y1="271.032" x2="2.98438" y2="239.565" gradientUnits="userSpaceOnUse">
<stop stop-color="#EBFFFF"/>
<stop offset="0.508235" stop-color="#B4FBFF"/>
<stop offset="1" stop-color="#5DCEFC" stop-opacity="0.48"/>
</linearGradient>
<linearGradient id="paint14_linear_172_2110" x1="32.976" y1="271.032" x2="2.98438" y2="239.565" gradientUnits="userSpaceOnUse">
<stop stop-color="#B4DFFF" stop-opacity="0.63"/>
<stop offset="0.333333" stop-color="#B4E1FF" stop-opacity="0.93"/>
<stop offset="0.666667" stop-color="#1074C6"/>
<stop offset="1" stop-color="#5DAFFC"/>
</linearGradient>
<linearGradient id="paint15_linear_172_2110" x1="32.951" y1="269.507" x2="4.48438" y2="239.64" gradientUnits="userSpaceOnUse">
<stop stop-color="#B4D3FF"/>
<stop offset="0.333333" stop-color="#B4D2FF"/>
<stop offset="0.666667" stop-color="#107AC6"/>
<stop offset="1" stop-color="#5D92FC"/>
</linearGradient>
<linearGradient id="paint16_linear_172_2110" x1="-7.56699e-10" y1="1.00002" x2="26" y2="1.00002" gradientUnits="userSpaceOnUse">
<stop stop-color="#DBE8FF"/>
<stop offset="1" stop-color="#B8D6FF"/>
</linearGradient>
<linearGradient id="paint17_linear_172_2110" x1="302.854" y1="271.54" x2="328.854" y2="271.54" gradientUnits="userSpaceOnUse">
<stop stop-color="#DBE8FF"/>
<stop offset="1" stop-color="#B8D6FF"/>
</linearGradient>
<linearGradient id="paint18_linear_172_2110" x1="310.362" y1="271.032" x2="340.354" y2="239.565" gradientUnits="userSpaceOnUse">
<stop stop-color="#EBFFFF"/>
<stop offset="0.508235" stop-color="#B4FBFF"/>
<stop offset="1" stop-color="#5DCEFC" stop-opacity="0.48"/>
</linearGradient>
<linearGradient id="paint19_linear_172_2110" x1="310.362" y1="271.032" x2="340.354" y2="239.565" gradientUnits="userSpaceOnUse">
<stop stop-color="#B4DFFF" stop-opacity="0.63"/>
<stop offset="0.333333" stop-color="#B4E1FF" stop-opacity="0.93"/>
<stop offset="0.666667" stop-color="#1074C6"/>
<stop offset="1" stop-color="#5DAFFC"/>
</linearGradient>
<linearGradient id="paint20_linear_172_2110" x1="310.387" y1="269.507" x2="338.854" y2="239.64" gradientUnits="userSpaceOnUse">
<stop stop-color="#B4D3FF"/>
<stop offset="0.333333" stop-color="#B4D2FF"/>
<stop offset="0.666667" stop-color="#107AC6"/>
<stop offset="1" stop-color="#5D92FC"/>
</linearGradient>
<linearGradient id="paint21_linear_172_2110" x1="2.85352" y1="225.04" x2="175.854" y2="225.04" gradientUnits="userSpaceOnUse">
<stop stop-color="#8AACE2"/>
<stop offset="0.166667" stop-color="#7BAFE2"/>
<stop offset="0.333333" stop-color="#7BA8DF"/>
<stop offset="0.5" stop-color="#BAE0FF"/>
<stop offset="0.666667" stop-color="#D2ECFF"/>
<stop offset="0.833333" stop-color="#DEEAFF"/>
<stop offset="1" stop-color="#C0DAFF"/>
</linearGradient>
<linearGradient id="paint22_linear_172_2110" x1="-5.03496e-09" y1="1.00002" x2="173" y2="1.00002" gradientUnits="userSpaceOnUse">
<stop stop-color="#8AACE2"/>
<stop offset="0.166667" stop-color="#7BAFE2"/>
<stop offset="0.333333" stop-color="#7BA8DF"/>
<stop offset="0.5" stop-color="#BAE0FF"/>
<stop offset="0.666667" stop-color="#D2ECFF"/>
<stop offset="0.833333" stop-color="#DEEAFF"/>
<stop offset="1" stop-color="#C0DAFF"/>
</linearGradient>
</defs>
</svg>
