<svg width="343" height="205" viewBox="0 0 343 205" fill="none" xmlns="http://www.w3.org/2000/svg">
<g id="111">
<g id="Group 1321317606">
<g id="3" opacity="0.5">
<mask id="path-1-inside-1_126_990" fill="white">
<path d="M339.984 204.228H2.98438V0H339.984V204.228Z"/>
</mask>
<g filter="url(#filter0_i_126_990)">
<path d="M339.984 204.228H2.98438V0H339.984V204.228Z" fill="url(#paint0_linear_126_990)" fill-opacity="0.01"/>
</g>
<path d="M339.984 204.228V205.228H340.984V204.228H339.984ZM2.98438 204.228H1.98438V205.228H2.98438V204.228ZM2.98438 0V-1H1.98438V0H2.98438ZM339.984 0H340.984V-1H339.984V0ZM339.984 204.228V203.228H2.98438V204.228V205.228H339.984V204.228ZM2.98438 204.228H3.98438V0H2.98438H1.98438V204.228H2.98438ZM2.98438 0V1H339.984V0V-1H2.98438V0ZM339.984 0H338.984V204.228H339.984H340.984V0H339.984Z" fill="#667FB5" fill-opacity="0.6" mask="url(#path-1-inside-1_126_990)"/>
</g>
<g id="2" opacity="0.4">
<mask id="path-3-inside-2_126_990" fill="white">
<path d="M342.648 198.663H0V3.2832H342.648V198.663Z"/>
</mask>
<g filter="url(#filter1_i_126_990)">
<path d="M342.648 198.663H0V3.2832H342.648V198.663Z" fill="url(#paint1_linear_126_990)" fill-opacity="0.2"/>
</g>
<path d="M342.648 198.663V199.663H343.648V198.663H342.648ZM0 198.663H-1V199.663H0V198.663ZM0 3.2832V2.2832H-1V3.2832H0ZM342.648 3.2832H343.648V2.2832H342.648V3.2832ZM342.648 198.663V197.663H0V198.663V199.663H342.648V198.663ZM0 198.663H1V3.2832H0H-1V198.663H0ZM0 3.2832V4.2832H342.648V3.2832V2.2832H0V3.2832ZM342.648 3.2832H341.648V198.663H342.648H343.648V3.2832H342.648Z" fill="#668AB5" mask="url(#path-3-inside-2_126_990)"/>
</g>
<g id="Frame 48096535">
<g id="1">
<mask id="mask0_126_990" style="mask-type:alpha" maskUnits="userSpaceOnUse" x="2" y="6" width="338" height="194">
<g id="1_2">
<mask id="path-5-inside-3_126_990" fill="white">
<path d="M339.984 199.04H2.98438V6.04004H339.984V199.04Z"/>
</mask>
<path d="M339.984 199.04H2.98438V6.04004H339.984V199.04Z" fill="url(#paint2_linear_126_990)"/>
<path d="M339.984 199.04V200.04H340.984V199.04H339.984ZM2.98438 199.04H1.98438V200.04H2.98438V199.04ZM2.98438 6.04004V5.04004H1.98438V6.04004H2.98438ZM339.984 6.04004H340.984V5.04004H339.984V6.04004ZM339.984 199.04V198.04H2.98438V199.04V200.04H339.984V199.04ZM2.98438 199.04H3.98438V6.04004H2.98438H1.98438V199.04H2.98438ZM2.98438 6.04004V7.04004H339.984V6.04004V5.04004H2.98438V6.04004ZM339.984 6.04004H338.984V199.04H339.984H340.984V6.04004H339.984Z" fill="#669EB5" mask="url(#path-5-inside-3_126_990)"/>
</g>
</mask>
<g mask="url(#mask0_126_990)">
<g id="2_2">
<mask id="path-7-inside-4_126_990" fill="white">
<path d="M340 199H3V6H340V199Z"/>
</mask>
<g filter="url(#filter2_i_126_990)">
<path d="M340 199H3V6H340V199Z" fill="url(#paint3_linear_126_990)" fill-opacity="0.95"/>
</g>
<path d="M340 199V200H341V199H340ZM3 199H2V200H3V199ZM3 6V5H2V6H3ZM340 6H341V5H340V6ZM340 199V198H3V199V200H340V199ZM3 199H4V6H3H2V199H3ZM3 6V7H340V6V5H3V6ZM340 6H339V199H340H341V6H340Z" fill="#668AB5" mask="url(#path-7-inside-4_126_990)"/>
</g>
<rect id="&#230;&#160;&#135;&#233;&#162;&#152;&#232;&#131;&#140;&#230;&#153;&#175;" x="2.85352" y="6" width="337" height="36" fill="url(#paint4_linear_126_990)"/>
<g id="&#230;&#168;&#161;&#231;&#179;&#138;" filter="url(#filter3_f_126_990)">
<ellipse cx="171.5" cy="24.54" rx="80.5" ry="12.5" fill="#9FC6ED"/>
</g>
<path id="&#231;&#186;&#185;&#231;&#144;&#134;" opacity="0.2" d="M30.7988 -508.035L-435.065 314.155M34.2789 -506.063L-431.585 316.127M37.7591 -504.091L-428.105 318.099M41.2393 -502.119L-424.624 320.07M44.7196 -500.147L-421.144 322.042M48.1996 -498.175L-417.664 324.014M51.6798 -496.203L-414.184 325.986M55.16 -494.232L-410.704 327.958M58.6401 -492.26L-407.224 329.93M62.1203 -490.288L-403.743 331.902M65.6005 -488.316L-400.263 333.874M69.0806 -486.344L-396.783 335.846M72.5608 -484.372L-393.303 337.818M76.041 -482.4L-389.823 339.79M79.5213 -480.428L-386.343 341.761M83.0013 -478.456L-382.862 343.733M86.4815 -476.484L-379.382 345.705M89.9617 -474.513L-375.902 347.677M93.4418 -472.54L-372.422 349.649M96.922 -470.569L-368.942 351.621M100.402 -468.597L-365.462 353.593M103.882 -466.625L-361.982 355.565M107.362 -464.653L-358.501 357.537M110.843 -462.681L-355.021 359.509M114.323 -460.709L-351.541 361.481M117.803 -458.737L-348.061 363.453M121.283 -456.765L-344.581 365.424M124.763 -454.793L-341.1 367.396M128.243 -452.821L-337.62 369.368M131.724 -450.85L-334.14 371.34M135.204 -448.878L-330.66 373.312M138.684 -446.906L-327.18 375.284M142.164 -444.934L-323.7 377.256M145.644 -442.962L-320.219 379.228M149.124 -440.99L-316.739 381.2M152.605 -439.018L-313.259 383.172M156.085 -437.046L-309.779 385.143M159.565 -435.074L-306.299 387.115M163.045 -433.102L-302.819 389.087M166.525 -431.13L-299.339 391.059M170.006 -429.159L-295.858 393.031M173.486 -427.187L-292.378 395.003M176.966 -425.215L-288.898 396.975M180.446 -423.243L-285.418 398.947M183.926 -421.271L-281.938 400.919M187.406 -419.299L-278.457 402.891M190.887 -417.327L-274.977 404.863M194.367 -415.355L-271.497 406.834M197.847 -413.383L-268.017 408.806M201.327 -411.411L-264.537 410.778M204.807 -409.44L-261.057 412.75M208.287 -407.467L-257.577 414.722M211.768 -405.496L-254.096 416.694M215.248 -403.524L-250.616 418.666M218.728 -401.552L-247.136 420.638M222.208 -399.58L-243.656 422.61M225.688 -397.608L-240.176 424.582M229.168 -395.636L-236.696 426.554M232.649 -393.664L-233.215 428.526M236.129 -391.692L-229.735 430.497M239.609 -389.72L-226.255 432.469M243.089 -387.748L-222.775 434.441M246.569 -385.776L-219.295 436.413M250.049 -383.805L-215.814 438.385M253.53 -381.833L-212.334 440.357M257.01 -379.861L-208.854 442.329M260.49 -377.889L-205.374 444.301M263.97 -375.917L-201.894 446.273M267.45 -373.945L-198.414 448.245M270.93 -371.973L-194.933 450.217M274.411 -370.001L-191.453 452.188M277.891 -368.029L-187.973 454.16M281.371 -366.057L-184.493 456.132M284.851 -364.086L-181.013 458.104M288.331 -362.113L-177.533 460.076M291.811 -360.142L-174.052 462.048M295.292 -358.17L-170.572 464.02M298.772 -356.198L-167.092 465.992M302.252 -354.226L-163.612 467.964M305.732 -352.254L-160.132 469.936M309.212 -350.282L-156.652 471.908M312.692 -348.31L-153.171 473.88M316.173 -346.338L-149.691 475.851M319.653 -344.366L-146.211 477.823M323.133 -342.394L-142.731 479.795M326.613 -340.423L-139.251 481.767M330.093 -338.451L-135.771 483.739M333.573 -336.479L-132.29 485.711M337.054 -334.507L-128.81 487.683M340.534 -332.535L-125.33 489.655M344.014 -330.563L-121.85 491.627M347.494 -328.591L-118.37 493.599M350.974 -326.619L-114.89 495.571M354.454 -324.647L-111.409 497.542M357.935 -322.675L-107.929 499.514M361.415 -320.703L-104.449 501.486M364.895 -318.732L-100.969 503.458M368.375 -316.76L-97.4888 505.43M371.855 -314.788L-94.0085 507.402M375.335 -312.816L-90.5284 509.374M378.816 -310.844L-87.0483 511.346M382.296 -308.872L-83.5681 513.318M385.776 -306.9L-80.0879 515.29M389.256 -304.928L-76.6077 517.262M392.736 -302.956L-73.1276 519.233M396.216 -300.984L-69.6474 521.205M399.697 -299.013L-66.1672 523.177M403.177 -297.04L-62.6871 525.149M406.657 -295.069L-59.2069 527.121M410.137 -293.097L-55.7267 529.093M413.617 -291.125L-52.2466 531.065M417.097 -289.153L-48.7664 533.037M420.578 -287.181L-45.2862 535.009M424.058 -285.209L-41.806 536.981M427.538 -283.237L-38.3259 538.953M431.018 -281.265L-34.8457 540.924M434.498 -279.293L-31.3655 542.896M437.978 -277.321L-27.8854 544.868M441.459 -275.35L-24.4051 546.84M444.939 -273.378L-20.925 548.812M448.419 -271.406L-17.4449 550.784M451.899 -269.434L-13.9647 552.756M455.379 -267.462L-10.4845 554.728M458.859 -265.49L-7.00442 556.7M462.34 -263.518L-3.52419 558.672M465.82 -261.546L-0.0440168 560.644M469.3 -259.574L3.43612 562.616M472.78 -257.602L6.91632 564.587M476.26 -255.63L10.3964 566.559M479.741 -253.659L13.8767 568.531M483.221 -251.687L17.3568 570.503M486.701 -249.715L20.837 572.475M490.181 -247.743L24.3172 574.447M493.661 -245.771L27.7972 576.419M497.141 -243.799L31.2775 578.391M500.621 -241.827L34.7577 580.363M504.102 -239.855L38.2379 582.334M507.582 -237.883L41.718 584.307M511.062 -235.911L45.1981 586.278M514.542 -233.939L48.6784 588.25M518.022 -231.967L52.1585 590.222M521.503 -229.996L55.6387 592.194M524.983 -228.024L59.1189 594.166M528.463 -226.052L62.5989 596.138M531.943 -224.08L66.0791 598.11M535.423 -222.108L69.5594 600.082M538.903 -220.136L73.0395 602.054M542.383 -218.164L76.5197 604.026M545.864 -216.192L79.9998 605.997M549.344 -214.22L83.4799 607.969M552.824 -212.248L86.9602 609.941M556.304 -210.276L90.4404 611.913M559.784 -208.305L93.9206 613.885M563.264 -206.333L97.4006 615.857M566.745 -204.361L100.881 617.829M570.225 -202.389L104.361 619.801M573.705 -200.417L107.841 621.773M577.185 -198.445L111.321 623.745M580.665 -196.473L114.801 625.717M584.145 -194.501L118.282 627.689M587.626 -192.529L121.762 629.66M591.106 -190.557L125.242 631.632M594.586 -188.586L128.722 633.604M598.066 -186.613L132.202 635.576M601.546 -184.642L135.683 637.548M605.027 -182.67L139.163 639.52M608.507 -180.698L142.643 641.492M611.987 -178.726L146.123 643.464M615.467 -176.754L149.603 645.436M618.947 -174.782L153.083 647.408M622.427 -172.81L156.564 649.38M625.908 -170.838L160.044 651.351M629.388 -168.866L163.524 653.323M632.868 -166.894L167.004 655.295M636.348 -164.923L170.484 657.267M639.828 -162.951L173.964 659.239M643.308 -160.979L177.445 661.211M646.789 -159.007L180.925 663.183M650.269 -157.035L184.405 665.155M653.749 -155.063L187.885 667.127M657.229 -153.091L191.365 669.099M660.709 -151.119L194.845 671.07M664.189 -149.147L198.326 673.042M667.669 -147.175L201.806 675.014M671.15 -145.203L205.286 676.986M674.63 -143.231L208.766 678.958M678.11 -141.26L212.246 680.93M681.59 -139.288L215.726 682.902M685.07 -137.316L219.207 684.874M688.55 -135.344L222.687 686.846M692.031 -133.372L226.167 688.818M695.511 -131.4L229.647 690.79M698.991 -129.428L233.127 692.761M702.471 -127.456L236.607 694.733M705.951 -125.484L240.088 696.705M709.431 -123.512L243.568 698.677M712.912 -121.54L247.048 700.649M716.392 -119.569L250.528 702.621M719.872 -117.597L254.008 704.593M723.352 -115.625L257.488 706.565M726.832 -113.653L260.969 708.537M730.313 -111.681L264.449 710.509M733.793 -109.709L267.929 712.481M737.273 -107.737L271.409 714.453M740.753 -105.765L274.889 716.424M744.233 -103.793L278.369 718.396M747.713 -101.821L281.85 720.368M751.194 -99.8495L285.33 722.34M754.674 -97.8777L288.81 724.312M758.154 -95.9056L292.29 726.284M761.634 -93.9338L295.77 728.256M765.114 -91.9619L299.25 730.228M768.594 -89.9898L302.731 732.2M772.075 -88.018L306.211 734.172M775.555 -86.0462L309.691 736.143M779.035 -84.0741L313.171 738.115" stroke="url(#paint5_radial_126_990)" stroke-width="2"/>
</g>
</g>
<g id="&#229;&#183;&#166;&#228;&#184;&#138;&#232;&#167;&#146;" filter="url(#filter4_d_126_990)">
<mask id="mask1_126_990" style="mask-type:alpha" maskUnits="userSpaceOnUse" x="2" y="6" width="31" height="30">
<path id="Subtract" d="M29.4844 6.04004L32.4844 9.04004H6.98438C6.43209 9.04004 5.98438 9.48775 5.98438 10.04V35.54L2.98438 32.54V8.04004C2.98438 6.93547 3.87981 6.04004 4.98438 6.04004H29.4844Z" fill="url(#paint6_linear_126_990)"/>
</mask>
<g mask="url(#mask1_126_990)">
<path id="Subtract_2" d="M29.4844 6.04004L32.4844 9.04004H6.98438C6.43209 9.04004 5.98438 9.48775 5.98438 10.04V35.54L2.98438 32.54V8.04004C2.98438 6.93547 3.87981 6.04004 4.98438 6.04004H29.4844Z" fill="url(#paint7_linear_126_990)"/>
<path id="Rectangle 5024" d="M32.4844 7.54004H5.48438C4.93209 7.54004 4.48438 7.98775 4.48438 8.54004V35.54" stroke="url(#paint8_linear_126_990)"/>
</g>
</g>
<g id="&#228;&#184;&#138;&#231;&#186;&#191;" filter="url(#filter5_d_126_990)">
<path id="Rectangle 5031" d="M45.9844 6.04004H47.9844V8.04004L45.9844 6.04004Z" fill="#F1F8FF"/>
<rect id="Rectangle 5030" x="47.9844" y="6.04004" width="247" height="2" fill="url(#paint9_linear_126_990)"/>
<path id="Rectangle 5032" d="M296.984 6.04004H294.984V8.04004L296.984 6.04004Z" fill="#F1F8FF"/>
</g>
<g id="&#229;&#143;&#179;&#228;&#184;&#138;&#232;&#167;&#146;" filter="url(#filter6_d_126_990)">
<mask id="mask2_126_990" style="mask-type:alpha" maskUnits="userSpaceOnUse" x="310" y="6" width="30" height="30">
<path id="Subtract_3" d="M313.484 6.04004L310.484 9.04004H335.984C336.537 9.04004 336.984 9.48775 336.984 10.04V35.54L339.984 32.54V8.04004C339.984 6.93547 339.089 6.04004 337.984 6.04004H313.484Z" fill="url(#paint10_linear_126_990)"/>
</mask>
<g mask="url(#mask2_126_990)">
<path id="Subtract_4" d="M313.484 6.04004L310.484 9.04004H335.984C336.537 9.04004 336.984 9.48775 336.984 10.04V35.54L339.984 32.54V8.04004C339.984 6.93547 339.089 6.04004 337.984 6.04004H313.484Z" fill="url(#paint11_linear_126_990)"/>
<path id="Rectangle 5024_2" d="M310.484 7.54004H337.484C338.037 7.54004 338.484 7.98775 338.484 8.54004V35.54" stroke="url(#paint12_linear_126_990)"/>
</g>
</g>
<g id="&#229;&#183;&#166;&#228;&#184;&#139;&#232;&#167;&#146;">
<g id="Mask group" filter="url(#filter7_d_126_990)">
<mask id="mask3_126_990" style="mask-type:alpha" maskUnits="userSpaceOnUse" x="2" y="169" width="31" height="30">
<path id="Subtract_5" d="M29.4844 198.54L32.4844 195.54H6.98438C6.43209 195.54 5.98438 195.092 5.98438 194.54V169.04L2.98438 172.04V196.54C2.98438 197.645 3.87981 198.54 4.98438 198.54H29.4844Z" fill="url(#paint13_linear_126_990)"/>
</mask>
<g mask="url(#mask3_126_990)">
<path id="Subtract_6" d="M29.4844 198.54L32.4844 195.54H6.98438C6.43209 195.54 5.98438 195.092 5.98438 194.54V169.04L2.98438 172.04V196.54C2.98438 197.645 3.87981 198.54 4.98438 198.54H29.4844Z" fill="url(#paint14_linear_126_990)"/>
<path id="Rectangle 5024_3" d="M32.4844 197.04H5.48438C4.93209 197.04 4.48438 196.592 4.48438 196.04V169.04" stroke="url(#paint15_linear_126_990)"/>
</g>
</g>
<g id="Frame 48096532" filter="url(#filter8_d_126_990)">
<path id="Rectangle 5031_2" d="M36.4844 198.54H38.4844V196.54L36.4844 198.54Z" fill="#DBEBFF"/>
<rect id="Rectangle 5030_2" width="26" height="2" transform="matrix(1 0 0 -1 38.4844 198.54)" fill="url(#paint16_linear_126_990)"/>
<path id="Rectangle 5032_2" d="M66.4844 198.54H64.4844V196.54L66.4844 198.54Z" fill="#B8DCFF"/>
</g>
</g>
<g id="&#229;&#143;&#179;&#228;&#184;&#139;&#232;&#167;&#146;">
<g id="Frame 48096533" filter="url(#filter9_d_126_990)">
<path id="Rectangle 5031_3" d="M304.854 198.54H302.854V196.54L304.854 198.54Z" fill="#DBEBFF"/>
<rect id="Rectangle 5030_3" x="302.854" y="198.54" width="26" height="2" transform="rotate(180 302.854 198.54)" fill="url(#paint17_linear_126_990)"/>
<path id="Rectangle 5032_3" d="M274.854 198.54H276.854V196.54L274.854 198.54Z" fill="#B8DCFF"/>
</g>
<g id="Mask group_2" filter="url(#filter10_d_126_990)">
<mask id="mask4_126_990" style="mask-type:alpha" maskUnits="userSpaceOnUse" x="310" y="169" width="31" height="30">
<path id="Subtract_7" d="M313.854 198.54L310.854 195.54H336.354C336.906 195.54 337.354 195.092 337.354 194.54V169.04L340.354 172.04V196.54C340.354 197.645 339.458 198.54 338.354 198.54H313.854Z" fill="url(#paint18_linear_126_990)"/>
</mask>
<g mask="url(#mask4_126_990)">
<path id="Subtract_8" d="M313.854 198.54L310.854 195.54H336.354C336.906 195.54 337.354 195.092 337.354 194.54V169.04L340.354 172.04V196.54C340.354 197.645 339.458 198.54 338.354 198.54H313.854Z" fill="url(#paint19_linear_126_990)"/>
<path id="Rectangle 5024_4" d="M310.854 197.04H337.854C338.406 197.04 338.854 196.592 338.854 196.04V169.04" stroke="url(#paint20_linear_126_990)"/>
</g>
</g>
</g>
<g id="&#229;&#183;&#166;&#231;&#186;&#191;" filter="url(#filter11_d_126_990)">
<path id="Rectangle 5031_4" d="M2.85352 154.04L2.85352 152.04L4.85352 152.04L2.85352 154.04Z" fill="#8ABCE2"/>
<rect id="Rectangle 5030_4" x="2.85352" y="152.04" width="101" height="2" transform="rotate(-90 2.85352 152.04)" fill="url(#paint21_linear_126_990)"/>
<path id="Rectangle 5032_4" d="M2.85352 49.04L2.85352 51.04L4.85352 51.04L2.85352 49.04Z" fill="#C0D4FF"/>
</g>
<g id="&#229;&#143;&#179;&#231;&#186;&#191;" filter="url(#filter12_d_126_990)">
<path id="Rectangle 5031_5" d="M339.854 154.04L339.854 152.04L337.854 152.04L339.854 154.04Z" fill="#8ABCE2"/>
<rect id="Rectangle 5030_5" width="101" height="2" transform="matrix(8.61739e-08 -1 -1 -2.21724e-08 339.854 152.04)" fill="url(#paint22_linear_126_990)"/>
<path id="Rectangle 5032_5" d="M339.854 49.04L339.854 51.04L337.854 51.04L339.854 49.04Z" fill="#C0D4FF"/>
</g>
</g>
</g>
</g>
<defs>
<filter id="filter0_i_126_990" x="2.98438" y="0" width="337" height="204.228" filterUnits="userSpaceOnUse" color-interpolation-filters="sRGB">
<feFlood flood-opacity="0" result="BackgroundImageFix"/>
<feBlend mode="normal" in="SourceGraphic" in2="BackgroundImageFix" result="shape"/>
<feColorMatrix in="SourceAlpha" type="matrix" values="0 0 0 0 0 0 0 0 0 0 0 0 0 0 0 0 0 0 127 0" result="hardAlpha"/>
<feOffset/>
<feGaussianBlur stdDeviation="2.5"/>
<feComposite in2="hardAlpha" operator="arithmetic" k2="-1" k3="1"/>
<feColorMatrix type="matrix" values="0 0 0 0 0 0 0 0 0 0.25 0 0 0 0 1 0 0 0 1 0"/>
<feBlend mode="normal" in2="shape" result="effect1_innerShadow_126_990"/>
</filter>
<filter id="filter1_i_126_990" x="0" y="3.2832" width="342.648" height="195.38" filterUnits="userSpaceOnUse" color-interpolation-filters="sRGB">
<feFlood flood-opacity="0" result="BackgroundImageFix"/>
<feBlend mode="normal" in="SourceGraphic" in2="BackgroundImageFix" result="shape"/>
<feColorMatrix in="SourceAlpha" type="matrix" values="0 0 0 0 0 0 0 0 0 0 0 0 0 0 0 0 0 0 127 0" result="hardAlpha"/>
<feOffset/>
<feGaussianBlur stdDeviation="20"/>
<feComposite in2="hardAlpha" operator="arithmetic" k2="-1" k3="1"/>
<feColorMatrix type="matrix" values="0 0 0 0 0 0 0 0 0 0.148985 0 0 0 0 0.812647 0 0 0 1 0"/>
<feBlend mode="normal" in2="shape" result="effect1_innerShadow_126_990"/>
</filter>
<filter id="filter2_i_126_990" x="3" y="6" width="337" height="193" filterUnits="userSpaceOnUse" color-interpolation-filters="sRGB">
<feFlood flood-opacity="0" result="BackgroundImageFix"/>
<feBlend mode="normal" in="SourceGraphic" in2="BackgroundImageFix" result="shape"/>
<feColorMatrix in="SourceAlpha" type="matrix" values="0 0 0 0 0 0 0 0 0 0 0 0 0 0 0 0 0 0 127 0" result="hardAlpha"/>
<feOffset/>
<feGaussianBlur stdDeviation="20"/>
<feComposite in2="hardAlpha" operator="arithmetic" k2="-1" k3="1"/>
<feColorMatrix type="matrix" values="0 0 0 0 0 0 0 0 0 0.257338 0 0 0 0 0.812647 0 0 0 1 0"/>
<feBlend mode="normal" in2="shape" result="effect1_innerShadow_126_990"/>
</filter>
<filter id="filter3_f_126_990" x="69" y="-9.95996" width="205" height="69" filterUnits="userSpaceOnUse" color-interpolation-filters="sRGB">
<feFlood flood-opacity="0" result="BackgroundImageFix"/>
<feBlend mode="normal" in="SourceGraphic" in2="BackgroundImageFix" result="shape"/>
<feGaussianBlur stdDeviation="11" result="effect1_foregroundBlur_126_990"/>
</filter>
<filter id="filter4_d_126_990" x="0.984375" y="6.04004" width="33.5" height="33.5" filterUnits="userSpaceOnUse" color-interpolation-filters="sRGB">
<feFlood flood-opacity="0" result="BackgroundImageFix"/>
<feColorMatrix in="SourceAlpha" type="matrix" values="0 0 0 0 0 0 0 0 0 0 0 0 0 0 0 0 0 0 127 0" result="hardAlpha"/>
<feOffset dy="2"/>
<feGaussianBlur stdDeviation="1"/>
<feComposite in2="hardAlpha" operator="out"/>
<feColorMatrix type="matrix" values="0 0 0 0 0 0 0 0 0 0.282353 0 0 0 0 0.776471 0 0 0 0.7 0"/>
<feBlend mode="normal" in2="BackgroundImageFix" result="effect1_dropShadow_126_990"/>
<feBlend mode="normal" in="SourceGraphic" in2="effect1_dropShadow_126_990" result="shape"/>
</filter>
<filter id="filter5_d_126_990" x="44.9844" y="6.04004" width="253" height="5" filterUnits="userSpaceOnUse" color-interpolation-filters="sRGB">
<feFlood flood-opacity="0" result="BackgroundImageFix"/>
<feColorMatrix in="SourceAlpha" type="matrix" values="0 0 0 0 0 0 0 0 0 0 0 0 0 0 0 0 0 0 127 0" result="hardAlpha"/>
<feOffset dy="2"/>
<feGaussianBlur stdDeviation="0.5"/>
<feComposite in2="hardAlpha" operator="out"/>
<feColorMatrix type="matrix" values="0 0 0 0 0 0 0 0 0 0.0729508 0 0 0 0 0.312646 0 0 0 0.8 0"/>
<feBlend mode="normal" in2="BackgroundImageFix" result="effect1_dropShadow_126_990"/>
<feBlend mode="normal" in="SourceGraphic" in2="effect1_dropShadow_126_990" result="shape"/>
</filter>
<filter id="filter6_d_126_990" x="308.484" y="6.04004" width="33.5" height="33.5" filterUnits="userSpaceOnUse" color-interpolation-filters="sRGB">
<feFlood flood-opacity="0" result="BackgroundImageFix"/>
<feColorMatrix in="SourceAlpha" type="matrix" values="0 0 0 0 0 0 0 0 0 0 0 0 0 0 0 0 0 0 127 0" result="hardAlpha"/>
<feOffset dy="2"/>
<feGaussianBlur stdDeviation="1"/>
<feComposite in2="hardAlpha" operator="out"/>
<feColorMatrix type="matrix" values="0 0 0 0 0 0 0 0 0 0.0500865 0 0 0 0 0.429313 0 0 0 0.7 0"/>
<feBlend mode="normal" in2="BackgroundImageFix" result="effect1_dropShadow_126_990"/>
<feBlend mode="normal" in="SourceGraphic" in2="effect1_dropShadow_126_990" result="shape"/>
</filter>
<filter id="filter7_d_126_990" x="0.984375" y="163.04" width="37.5" height="37.5" filterUnits="userSpaceOnUse" color-interpolation-filters="sRGB">
<feFlood flood-opacity="0" result="BackgroundImageFix"/>
<feColorMatrix in="SourceAlpha" type="matrix" values="0 0 0 0 0 0 0 0 0 0 0 0 0 0 0 0 0 0 127 0" result="hardAlpha"/>
<feOffset dx="2" dy="-2"/>
<feGaussianBlur stdDeviation="2"/>
<feComposite in2="hardAlpha" operator="out"/>
<feColorMatrix type="matrix" values="0 0 0 0 0 0 0 0 0 0.284229 0 0 0 0 0.775171 0 0 0 1 0"/>
<feBlend mode="normal" in2="BackgroundImageFix" result="effect1_dropShadow_126_990"/>
<feBlend mode="normal" in="SourceGraphic" in2="effect1_dropShadow_126_990" result="shape"/>
</filter>
<filter id="filter8_d_126_990" x="35.4844" y="193.54" width="32" height="5" filterUnits="userSpaceOnUse" color-interpolation-filters="sRGB">
<feFlood flood-opacity="0" result="BackgroundImageFix"/>
<feColorMatrix in="SourceAlpha" type="matrix" values="0 0 0 0 0 0 0 0 0 0 0 0 0 0 0 0 0 0 127 0" result="hardAlpha"/>
<feOffset dy="-2"/>
<feGaussianBlur stdDeviation="0.5"/>
<feComposite in2="hardAlpha" operator="out"/>
<feColorMatrix type="matrix" values="0 0 0 0 0 0 0 0 0 0.211248 0 0 0 0 0.312646 0 0 0 0.8 0"/>
<feBlend mode="normal" in2="BackgroundImageFix" result="effect1_dropShadow_126_990"/>
<feBlend mode="normal" in="SourceGraphic" in2="effect1_dropShadow_126_990" result="shape"/>
</filter>
<filter id="filter9_d_126_990" x="273.854" y="193.54" width="32" height="5" filterUnits="userSpaceOnUse" color-interpolation-filters="sRGB">
<feFlood flood-opacity="0" result="BackgroundImageFix"/>
<feColorMatrix in="SourceAlpha" type="matrix" values="0 0 0 0 0 0 0 0 0 0 0 0 0 0 0 0 0 0 127 0" result="hardAlpha"/>
<feOffset dy="-2"/>
<feGaussianBlur stdDeviation="0.5"/>
<feComposite in2="hardAlpha" operator="out"/>
<feColorMatrix type="matrix" values="0 0 0 0 0 0 0 0 0 0.211248 0 0 0 0 0.312646 0 0 0 0.8 0"/>
<feBlend mode="normal" in2="BackgroundImageFix" result="effect1_dropShadow_126_990"/>
<feBlend mode="normal" in="SourceGraphic" in2="effect1_dropShadow_126_990" result="shape"/>
</filter>
<filter id="filter10_d_126_990" x="304.854" y="163.04" width="37.5" height="37.5" filterUnits="userSpaceOnUse" color-interpolation-filters="sRGB">
<feFlood flood-opacity="0" result="BackgroundImageFix"/>
<feColorMatrix in="SourceAlpha" type="matrix" values="0 0 0 0 0 0 0 0 0 0 0 0 0 0 0 0 0 0 127 0" result="hardAlpha"/>
<feOffset dx="-2" dy="-2"/>
<feGaussianBlur stdDeviation="2"/>
<feComposite in2="hardAlpha" operator="out"/>
<feColorMatrix type="matrix" values="0 0 0 0 0 0 0 0 0 0.282353 0 0 0 0 0.776471 0 0 0 1 0"/>
<feBlend mode="normal" in2="BackgroundImageFix" result="effect1_dropShadow_126_990"/>
<feBlend mode="normal" in="SourceGraphic" in2="effect1_dropShadow_126_990" result="shape"/>
</filter>
<filter id="filter11_d_126_990" x="2.85352" y="48.04" width="4" height="107" filterUnits="userSpaceOnUse" color-interpolation-filters="sRGB">
<feFlood flood-opacity="0" result="BackgroundImageFix"/>
<feColorMatrix in="SourceAlpha" type="matrix" values="0 0 0 0 0 0 0 0 0 0 0 0 0 0 0 0 0 0 127 0" result="hardAlpha"/>
<feOffset dx="1"/>
<feGaussianBlur stdDeviation="0.5"/>
<feComposite in2="hardAlpha" operator="out"/>
<feColorMatrix type="matrix" values="0 0 0 0 0 0 0 0 0 0.0521077 0 0 0 0 0.312646 0 0 0 0.5 0"/>
<feBlend mode="normal" in2="BackgroundImageFix" result="effect1_dropShadow_126_990"/>
<feBlend mode="normal" in="SourceGraphic" in2="effect1_dropShadow_126_990" result="shape"/>
</filter>
<filter id="filter12_d_126_990" x="335.854" y="48.04" width="4" height="107" filterUnits="userSpaceOnUse" color-interpolation-filters="sRGB">
<feFlood flood-opacity="0" result="BackgroundImageFix"/>
<feColorMatrix in="SourceAlpha" type="matrix" values="0 0 0 0 0 0 0 0 0 0 0 0 0 0 0 0 0 0 127 0" result="hardAlpha"/>
<feOffset dx="-1"/>
<feGaussianBlur stdDeviation="0.5"/>
<feComposite in2="hardAlpha" operator="out"/>
<feColorMatrix type="matrix" values="0 0 0 0 0 0 0 0 0 0.0521077 0 0 0 0 0.312646 0 0 0 0.5 0"/>
<feBlend mode="normal" in2="BackgroundImageFix" result="effect1_dropShadow_126_990"/>
<feBlend mode="normal" in="SourceGraphic" in2="effect1_dropShadow_126_990" result="shape"/>
</filter>
<linearGradient id="paint0_linear_126_990" x1="171.484" y1="7.09406" x2="171.484" y2="204.228" gradientUnits="userSpaceOnUse">
<stop stop-color="#205E8D"/>
<stop offset="0.74489" stop-color="#091423"/>
<stop offset="1" stop-color="#091423"/>
</linearGradient>
<linearGradient id="paint1_linear_126_990" x1="171.568" y1="6.75443" x2="171.568" y2="198.663" gradientUnits="userSpaceOnUse">
<stop stop-color="#09173B"/>
<stop offset="0.74489" stop-color="#091323"/>
<stop offset="1" stop-color="#091223"/>
</linearGradient>
<linearGradient id="paint2_linear_126_990" x1="171.484" y1="6.04004" x2="171.484" y2="199.04" gradientUnits="userSpaceOnUse">
<stop stop-color="#206A8D"/>
<stop offset="0.74489" stop-color="#091523"/>
<stop offset="1" stop-color="#091523"/>
</linearGradient>
<linearGradient id="paint3_linear_126_990" x1="171.484" y1="6.02683" x2="171.484" y2="199.027" gradientUnits="userSpaceOnUse">
<stop stop-color="#20588D"/>
<stop offset="0.639099" stop-color="#030E1A"/>
<stop offset="0.74489" stop-color="#030D1A"/>
<stop offset="1" stop-color="#091623"/>
</linearGradient>
<linearGradient id="paint4_linear_126_990" x1="171.354" y1="6" x2="171.354" y2="42" gradientUnits="userSpaceOnUse">
<stop stop-color="#1B6DBE"/>
<stop offset="1" stop-color="#2F61A7"/>
</linearGradient>
<radialGradient id="paint5_radial_126_990" cx="0" cy="0" r="1" gradientUnits="userSpaceOnUse" gradientTransform="translate(165 23.9997) rotate(90.7098) scale(282.522 257.5)">
<stop stop-color="#23417D"/>
<stop offset="1" stop-color="#234F7D" stop-opacity="0"/>
</radialGradient>
<linearGradient id="paint6_linear_126_990" x1="32.976" y1="5.54837" x2="2.98438" y2="37.015" gradientUnits="userSpaceOnUse">
<stop stop-color="#EBFFFF"/>
<stop offset="0.508235" stop-color="#B4FBFF"/>
<stop offset="1" stop-color="#5DCEFC" stop-opacity="0.48"/>
</linearGradient>
<linearGradient id="paint7_linear_126_990" x1="32.976" y1="5.54837" x2="2.98438" y2="37.015" gradientUnits="userSpaceOnUse">
<stop stop-color="#EBF4FF"/>
<stop offset="0.448811" stop-color="#B4E4FF"/>
<stop offset="0.573934" stop-color="#3389EC"/>
<stop offset="1" stop-color="#5D9AFC" stop-opacity="0.48"/>
</linearGradient>
<linearGradient id="paint8_linear_126_990" x1="32.951" y1="7.07337" x2="4.48438" y2="36.94" gradientUnits="userSpaceOnUse">
<stop stop-color="#BDD4EF"/>
<stop offset="0.688032" stop-color="#1073C4"/>
<stop offset="1" stop-color="#1957BB"/>
</linearGradient>
<linearGradient id="paint9_linear_126_990" x1="47.9844" y1="7.04005" x2="294.984" y2="7.04005" gradientUnits="userSpaceOnUse">
<stop stop-color="#F1F7FF"/>
<stop offset="0.166667" stop-color="#F0F3FF"/>
<stop offset="0.333333" stop-color="#D4E8FF"/>
<stop offset="0.5" stop-color="#D6E6FF"/>
<stop offset="0.666667" stop-color="#D4E0FF"/>
<stop offset="0.833333" stop-color="#F0F8FF"/>
<stop offset="1" stop-color="#F1F7FF"/>
</linearGradient>
<linearGradient id="paint10_linear_126_990" x1="309.993" y1="5.54837" x2="339.984" y2="37.015" gradientUnits="userSpaceOnUse">
<stop stop-color="#EBFFFF"/>
<stop offset="0.508235" stop-color="#B4FBFF"/>
<stop offset="1" stop-color="#5DCEFC" stop-opacity="0.48"/>
</linearGradient>
<linearGradient id="paint11_linear_126_990" x1="309.993" y1="5.54837" x2="339.984" y2="37.015" gradientUnits="userSpaceOnUse">
<stop stop-color="#EBF4FF"/>
<stop offset="0.448811" stop-color="#B4E4FF"/>
<stop offset="0.573934" stop-color="#3389EC"/>
<stop offset="1" stop-color="#5D9AFC" stop-opacity="0.48"/>
</linearGradient>
<linearGradient id="paint12_linear_126_990" x1="310.018" y1="7.07337" x2="338.484" y2="36.94" gradientUnits="userSpaceOnUse">
<stop stop-color="#BDD4EF"/>
<stop offset="0.688032" stop-color="#1073C4"/>
<stop offset="1" stop-color="#1957BB"/>
</linearGradient>
<linearGradient id="paint13_linear_126_990" x1="32.976" y1="199.032" x2="2.98438" y2="167.565" gradientUnits="userSpaceOnUse">
<stop stop-color="#EBFFFF"/>
<stop offset="0.508235" stop-color="#B4FBFF"/>
<stop offset="1" stop-color="#5DCEFC" stop-opacity="0.48"/>
</linearGradient>
<linearGradient id="paint14_linear_126_990" x1="32.976" y1="199.032" x2="2.98438" y2="167.565" gradientUnits="userSpaceOnUse">
<stop stop-color="#B4DFFF" stop-opacity="0.63"/>
<stop offset="0.333333" stop-color="#B4E1FF" stop-opacity="0.93"/>
<stop offset="0.666667" stop-color="#1074C6"/>
<stop offset="1" stop-color="#5DAFFC"/>
</linearGradient>
<linearGradient id="paint15_linear_126_990" x1="32.951" y1="197.507" x2="4.48438" y2="167.64" gradientUnits="userSpaceOnUse">
<stop stop-color="#B4D3FF"/>
<stop offset="0.333333" stop-color="#B4D2FF"/>
<stop offset="0.666667" stop-color="#107AC6"/>
<stop offset="1" stop-color="#5D92FC"/>
</linearGradient>
<linearGradient id="paint16_linear_126_990" x1="-7.56699e-10" y1="1.00002" x2="26" y2="1.00002" gradientUnits="userSpaceOnUse">
<stop stop-color="#DBE8FF"/>
<stop offset="1" stop-color="#B8D6FF"/>
</linearGradient>
<linearGradient id="paint17_linear_126_990" x1="302.854" y1="199.54" x2="328.854" y2="199.54" gradientUnits="userSpaceOnUse">
<stop stop-color="#DBE8FF"/>
<stop offset="1" stop-color="#B8D6FF"/>
</linearGradient>
<linearGradient id="paint18_linear_126_990" x1="310.362" y1="199.032" x2="340.354" y2="167.565" gradientUnits="userSpaceOnUse">
<stop stop-color="#EBFFFF"/>
<stop offset="0.508235" stop-color="#B4FBFF"/>
<stop offset="1" stop-color="#5DCEFC" stop-opacity="0.48"/>
</linearGradient>
<linearGradient id="paint19_linear_126_990" x1="310.362" y1="199.032" x2="340.354" y2="167.565" gradientUnits="userSpaceOnUse">
<stop stop-color="#B4DFFF" stop-opacity="0.63"/>
<stop offset="0.333333" stop-color="#B4E1FF" stop-opacity="0.93"/>
<stop offset="0.666667" stop-color="#1074C6"/>
<stop offset="1" stop-color="#5DAFFC"/>
</linearGradient>
<linearGradient id="paint20_linear_126_990" x1="310.387" y1="197.507" x2="338.854" y2="167.64" gradientUnits="userSpaceOnUse">
<stop stop-color="#B4D3FF"/>
<stop offset="0.333333" stop-color="#B4D2FF"/>
<stop offset="0.666667" stop-color="#107AC6"/>
<stop offset="1" stop-color="#5D92FC"/>
</linearGradient>
<linearGradient id="paint21_linear_126_990" x1="2.85352" y1="153.04" x2="103.854" y2="153.04" gradientUnits="userSpaceOnUse">
<stop stop-color="#8AACE2"/>
<stop offset="0.166667" stop-color="#7BAFE2"/>
<stop offset="0.333333" stop-color="#7BA8DF"/>
<stop offset="0.5" stop-color="#BAE0FF"/>
<stop offset="0.666667" stop-color="#D2ECFF"/>
<stop offset="0.833333" stop-color="#DEEAFF"/>
<stop offset="1" stop-color="#C0DAFF"/>
</linearGradient>
<linearGradient id="paint22_linear_126_990" x1="-2.93949e-09" y1="1.00002" x2="101" y2="1.00002" gradientUnits="userSpaceOnUse">
<stop stop-color="#8AACE2"/>
<stop offset="0.166667" stop-color="#7BAFE2"/>
<stop offset="0.333333" stop-color="#7BA8DF"/>
<stop offset="0.5" stop-color="#BAE0FF"/>
<stop offset="0.666667" stop-color="#D2ECFF"/>
<stop offset="0.833333" stop-color="#DEEAFF"/>
<stop offset="1" stop-color="#C0DAFF"/>
</linearGradient>
</defs>
</svg>
