<svg width="296" height="196" viewBox="0 0 296 196" fill="none" xmlns="http://www.w3.org/2000/svg">
<g id="Frame 1321318048">
<g id="Group 1321314772">
<g id="&#229;&#188;&#185;&#231;&#170;&#151;">
<g id="&#230;&#160;&#135;&#233;&#162;&#152;&#229;&#140;&#186;">
<rect x="5" y="1" width="287" height="30" fill="#13191E"/>
<rect x="5" y="1" width="287" height="30" fill="url(#paint0_linear_126_1893)" fill-opacity="0.29"/>
<rect x="5.25" y="1.25" width="286.5" height="29.5" stroke="url(#paint1_linear_126_1893)" stroke-opacity="0.38" stroke-width="0.5"/>
</g>
<g id="&#229;&#134;&#133;&#229;&#174;&#185;&#229;&#140;&#186;">
<g id="bg">
<g id="Union">
<mask id="path-3-inside-1_126_1893" fill="white">
<path d="M292 58H296V166H292V196H5V166H1V58H5V33H292V58Z"/>
</mask>
<path d="M292 58H296V166H292V196H5V166H1V58H5V33H292V58Z" fill="#13191E"/>
<path d="M292 58H296V166H292V196H5V166H1V58H5V33H292V58Z" fill="url(#paint2_radial_126_1893)" fill-opacity="0.29"/>
<path d="M292 58H291.5V58.5H292V58ZM296 58H296.5V57.5H296V58ZM296 166V166.5H296.5V166H296ZM292 166V165.5H291.5V166H292ZM292 196V196.5H292.5V196H292ZM5 196H4.5V196.5H5V196ZM5 166H5.5V165.5H5V166ZM1 166H0.5V166.5H1V166ZM1 58V57.5H0.5V58H1ZM5 58V58.5H5.5V58H5ZM5 33V32.5H4.5V33H5ZM292 33H292.5V32.5H292V33ZM292 58V58.5H296V58V57.5H292V58ZM296 58H295.5V166H296H296.5V58H296ZM296 166V165.5H292V166V166.5H296V166ZM292 166H291.5V196H292H292.5V166H292ZM292 196V195.5H5V196V196.5H292V196ZM5 196H5.5V166H5H4.5V196H5ZM5 166V165.5H1V166V166.5H5V166ZM1 166H1.5V58H1H0.5V166H1ZM1 58V58.5H5V58V57.5H1V58ZM5 58H5.5V33H5H4.5V58H5ZM5 33V33.5H292V33V32.5H5V33ZM292 33H291.5V58H292H292.5V33H292Z" fill="url(#paint3_linear_126_1893)" mask="url(#path-3-inside-1_126_1893)"/>
</g>
<rect id="Rectangle 1096" x="5" y="166" width="2" height="108" transform="rotate(180 5 166)" fill="url(#paint4_linear_126_1893)"/>
<path id="Rectangle 1098" d="M5 142L3 140H5V142Z" fill="#68B2FF"/>
<rect id="Rectangle 1093" width="2" height="108" transform="matrix(1 0 0 -1 292 166)" fill="url(#paint5_linear_126_1893)"/>
<path id="Rectangle 1095" d="M292 142L294 140H292V142Z" fill="#68B2FF"/>
<g id="Frame 3443" clip-path="url(#clip0_126_1893)">
<g id="Group 1" style="mix-blend-mode:overlay" opacity="0.3">
<rect id="Rectangle 1100" x="9.0625" y="-433.5" width="1" height="872" transform="rotate(30 9.0625 -433.5)" fill="#D9D9D9"/>
<rect id="Rectangle 1101" x="15.124" y="-430" width="1" height="872" transform="rotate(30 15.124 -430)" fill="#D9D9D9"/>
<rect id="Rectangle 1102" x="21.1865" y="-426.5" width="1" height="872" transform="rotate(30 21.1865 -426.5)" fill="#D9D9D9"/>
<rect id="Rectangle 1103" x="27.249" y="-423" width="1" height="872" transform="rotate(30 27.249 -423)" fill="#D9D9D9"/>
<rect id="Rectangle 1104" x="33.3105" y="-419.5" width="1" height="872" transform="rotate(30 33.3105 -419.5)" fill="#D9D9D9"/>
<rect id="Rectangle 1105" x="39.373" y="-416" width="1" height="872" transform="rotate(30 39.373 -416)" fill="#D9D9D9"/>
<rect id="Rectangle 1106" x="45.4355" y="-412.5" width="1" height="872" transform="rotate(30 45.4355 -412.5)" fill="#D9D9D9"/>
<rect id="Rectangle 1107" x="51.4971" y="-409" width="1" height="872" transform="rotate(30 51.4971 -409)" fill="#D9D9D9"/>
<rect id="Rectangle 1108" x="57.5596" y="-405.5" width="1" height="872" transform="rotate(30 57.5596 -405.5)" fill="#D9D9D9"/>
<rect id="Rectangle 1109" x="63.6221" y="-402" width="1" height="872" transform="rotate(30 63.6221 -402)" fill="#D9D9D9"/>
<rect id="Rectangle 1110" x="69.6836" y="-398.5" width="1" height="872" transform="rotate(30 69.6836 -398.5)" fill="#D9D9D9"/>
<rect id="Rectangle 1111" x="75.7461" y="-395" width="1" height="872" transform="rotate(30 75.7461 -395)" fill="#D9D9D9"/>
<rect id="Rectangle 1112" x="81.8086" y="-391.5" width="1" height="872" transform="rotate(30 81.8086 -391.5)" fill="#D9D9D9"/>
<rect id="Rectangle 1113" x="87.8701" y="-388" width="1" height="872" transform="rotate(30 87.8701 -388)" fill="#D9D9D9"/>
<rect id="Rectangle 1114" x="93.9326" y="-384.5" width="1" height="872" transform="rotate(30 93.9326 -384.5)" fill="#D9D9D9"/>
<rect id="Rectangle 1115" x="99.9951" y="-381" width="1" height="872" transform="rotate(30 99.9951 -381)" fill="#D9D9D9"/>
<rect id="Rectangle 1116" x="106.057" y="-377.5" width="1" height="872" transform="rotate(30 106.057 -377.5)" fill="#D9D9D9"/>
<rect id="Rectangle 1117" x="112.119" y="-374" width="1" height="872" transform="rotate(30 112.119 -374)" fill="#D9D9D9"/>
<rect id="Rectangle 1118" x="118.182" y="-370.5" width="1" height="872" transform="rotate(30 118.182 -370.5)" fill="#D9D9D9"/>
<rect id="Rectangle 1119" x="124.243" y="-367" width="1" height="872" transform="rotate(30 124.243 -367)" fill="#D9D9D9"/>
<rect id="Rectangle 1120" x="130.306" y="-363.5" width="1" height="872" transform="rotate(30 130.306 -363.5)" fill="#D9D9D9"/>
<rect id="Rectangle 1121" x="136.368" y="-360" width="1" height="872" transform="rotate(30 136.368 -360)" fill="#D9D9D9"/>
<rect id="Rectangle 1122" x="142.43" y="-356.5" width="1" height="872" transform="rotate(30 142.43 -356.5)" fill="#D9D9D9"/>
<rect id="Rectangle 1123" x="148.492" y="-353" width="1" height="872" transform="rotate(30 148.492 -353)" fill="#D9D9D9"/>
<rect id="Rectangle 1124" x="154.555" y="-349.5" width="1" height="872" transform="rotate(30 154.555 -349.5)" fill="#D9D9D9"/>
<rect id="Rectangle 1125" x="160.616" y="-346" width="1" height="872" transform="rotate(30 160.616 -346)" fill="#D9D9D9"/>
<rect id="Rectangle 1126" x="166.679" y="-342.5" width="1" height="872" transform="rotate(30 166.679 -342.5)" fill="#D9D9D9"/>
<rect id="Rectangle 1127" x="172.741" y="-339" width="1" height="872" transform="rotate(30 172.741 -339)" fill="#D9D9D9"/>
<rect id="Rectangle 1128" x="178.803" y="-335.5" width="1" height="872" transform="rotate(30 178.803 -335.5)" fill="#D9D9D9"/>
<rect id="Rectangle 1129" x="184.865" y="-332" width="1" height="872" transform="rotate(30 184.865 -332)" fill="#D9D9D9"/>
<rect id="Rectangle 1130" x="190.928" y="-328.5" width="1" height="872" transform="rotate(30 190.928 -328.5)" fill="#D9D9D9"/>
<rect id="Rectangle 1131" x="196.989" y="-325" width="1" height="872" transform="rotate(30 196.989 -325)" fill="#D9D9D9"/>
<rect id="Rectangle 1132" x="203.052" y="-321.5" width="1" height="872" transform="rotate(30 203.052 -321.5)" fill="#D9D9D9"/>
<rect id="Rectangle 1133" x="209.114" y="-318" width="1" height="872" transform="rotate(30 209.114 -318)" fill="#D9D9D9"/>
<rect id="Rectangle 1134" x="215.176" y="-314.5" width="1" height="872" transform="rotate(30 215.176 -314.5)" fill="#D9D9D9"/>
<rect id="Rectangle 1135" x="221.238" y="-311" width="1" height="872" transform="rotate(30 221.238 -311)" fill="#D9D9D9"/>
<rect id="Rectangle 1136" x="227.301" y="-307.5" width="1" height="872" transform="rotate(30 227.301 -307.5)" fill="#D9D9D9"/>
<rect id="Rectangle 1137" x="233.362" y="-304" width="1" height="872" transform="rotate(30 233.362 -304)" fill="#D9D9D9"/>
<rect id="Rectangle 1138" x="239.425" y="-300.5" width="1" height="872" transform="rotate(30 239.425 -300.5)" fill="#D9D9D9"/>
<rect id="Rectangle 1139" x="245.487" y="-297" width="1" height="872" transform="rotate(30 245.487 -297)" fill="#D9D9D9"/>
<rect id="Rectangle 1140" x="251.549" y="-293.5" width="1" height="872" transform="rotate(30 251.549 -293.5)" fill="#D9D9D9"/>
<rect id="Rectangle 1141" x="257.611" y="-290" width="1" height="872" transform="rotate(30 257.611 -290)" fill="#D9D9D9"/>
<rect id="Rectangle 1142" x="263.674" y="-286.5" width="1" height="872" transform="rotate(30 263.674 -286.5)" fill="#D9D9D9"/>
<rect id="Rectangle 1143" x="269.735" y="-283" width="1" height="872" transform="rotate(30 269.735 -283)" fill="#D9D9D9"/>
<rect id="Rectangle 1144" x="275.798" y="-279.5" width="1" height="872" transform="rotate(30 275.798 -279.5)" fill="#D9D9D9"/>
<rect id="Rectangle 1145" x="281.86" y="-276" width="1" height="872" transform="rotate(30 281.86 -276)" fill="#D9D9D9"/>
<rect id="Rectangle 1146" x="287.922" y="-272.5" width="1" height="872" transform="rotate(30 287.922 -272.5)" fill="#D9D9D9"/>
<rect id="Rectangle 1147" x="293.984" y="-269" width="1" height="872" transform="rotate(30 293.984 -269)" fill="#D9D9D9"/>
<rect id="Rectangle 1148" x="300.047" y="-265.5" width="1" height="872" transform="rotate(30 300.047 -265.5)" fill="#D9D9D9"/>
<rect id="Rectangle 1149" x="306.108" y="-262" width="1" height="872" transform="rotate(30 306.108 -262)" fill="#D9D9D9"/>
<rect id="Rectangle 1150" x="312.171" y="-258.5" width="1" height="872" transform="rotate(30 312.171 -258.5)" fill="#D9D9D9"/>
<rect id="Rectangle 1151" x="318.233" y="-255" width="1" height="872" transform="rotate(30 318.233 -255)" fill="#D9D9D9"/>
<rect id="Rectangle 1152" x="324.295" y="-251.5" width="1" height="872" transform="rotate(30 324.295 -251.5)" fill="#D9D9D9"/>
<rect id="Rectangle 1153" x="330.357" y="-248" width="1" height="872" transform="rotate(30 330.357 -248)" fill="#D9D9D9"/>
<rect id="Rectangle 1154" x="336.42" y="-244.5" width="1" height="872" transform="rotate(30 336.42 -244.5)" fill="#D9D9D9"/>
<rect id="Rectangle 1155" x="342.481" y="-241" width="1" height="872" transform="rotate(30 342.481 -241)" fill="#D9D9D9"/>
<rect id="Rectangle 1156" x="348.544" y="-237.5" width="1" height="872" transform="rotate(30 348.544 -237.5)" fill="#D9D9D9"/>
<rect id="Rectangle 1157" x="354.606" y="-234" width="1" height="872" transform="rotate(30 354.606 -234)" fill="#D9D9D9"/>
<rect id="Rectangle 1158" x="360.668" y="-230.5" width="1" height="872" transform="rotate(30 360.668 -230.5)" fill="#D9D9D9"/>
<rect id="Rectangle 1159" x="366.73" y="-227" width="1" height="872" transform="rotate(30 366.73 -227)" fill="#D9D9D9"/>
<rect id="Rectangle 1160" x="372.793" y="-223.5" width="1" height="872" transform="rotate(30 372.793 -223.5)" fill="#D9D9D9"/>
<rect id="Rectangle 1161" x="378.854" y="-220" width="1" height="872" transform="rotate(30 378.854 -220)" fill="#D9D9D9"/>
<rect id="Rectangle 1162" x="384.917" y="-216.5" width="1" height="872" transform="rotate(30 384.917 -216.5)" fill="#D9D9D9"/>
<rect id="Rectangle 1163" x="390.979" y="-213" width="1" height="872" transform="rotate(30 390.979 -213)" fill="#D9D9D9"/>
<rect id="Rectangle 1164" x="397.041" y="-209.5" width="1" height="872" transform="rotate(30 397.041 -209.5)" fill="#D9D9D9"/>
<rect id="Rectangle 1165" x="403.104" y="-206" width="1" height="872" transform="rotate(30 403.104 -206)" fill="#D9D9D9"/>
<rect id="Rectangle 1166" x="409.166" y="-202.5" width="1" height="872" transform="rotate(30 409.166 -202.5)" fill="#D9D9D9"/>
<rect id="Rectangle 1167" x="415.228" y="-199" width="1" height="872" transform="rotate(30 415.228 -199)" fill="#D9D9D9"/>
<rect id="Rectangle 1168" x="421.29" y="-195.5" width="1" height="872" transform="rotate(30 421.29 -195.5)" fill="#D9D9D9"/>
<rect id="Rectangle 1169" x="427.353" y="-192" width="1" height="872" transform="rotate(30 427.353 -192)" fill="#D9D9D9"/>
<rect id="Rectangle 1170" x="433.415" y="-188.5" width="1" height="872" transform="rotate(30 433.415 -188.5)" fill="#D9D9D9"/>
<rect id="Rectangle 1171" x="439.477" y="-185" width="1" height="872" transform="rotate(30 439.477 -185)" fill="#D9D9D9"/>
<rect id="Rectangle 1172" x="445.539" y="-181.5" width="1" height="872" transform="rotate(30 445.539 -181.5)" fill="#D9D9D9"/>
<rect id="Rectangle 1173" x="451.601" y="-178" width="1" height="872" transform="rotate(30 451.601 -178)" fill="#D9D9D9"/>
<rect id="Rectangle 1174" x="457.663" y="-174.5" width="1" height="872" transform="rotate(30 457.663 -174.5)" fill="#D9D9D9"/>
<rect id="Rectangle 1175" x="463.726" y="-171" width="1" height="872" transform="rotate(30 463.726 -171)" fill="#D9D9D9"/>
<rect id="Rectangle 1176" x="469.787" y="-167.5" width="1" height="872" transform="rotate(30 469.787 -167.5)" fill="#D9D9D9"/>
<rect id="Rectangle 1177" x="475.85" y="-164" width="1" height="872" transform="rotate(30 475.85 -164)" fill="#D9D9D9"/>
<rect id="Rectangle 1178" x="481.912" y="-160.5" width="1" height="872" transform="rotate(30 481.912 -160.5)" fill="#D9D9D9"/>
<rect id="Rectangle 1179" x="487.974" y="-157" width="1" height="872" transform="rotate(30 487.974 -157)" fill="#D9D9D9"/>
<rect id="Rectangle 1180" x="494.036" y="-153.5" width="1" height="872" transform="rotate(30 494.036 -153.5)" fill="#D9D9D9"/>
<rect id="Rectangle 1181" x="500.099" y="-150" width="1" height="872" transform="rotate(30 500.099 -150)" fill="#D9D9D9"/>
<rect id="Rectangle 1182" x="506.16" y="-146.5" width="1" height="872" transform="rotate(30 506.16 -146.5)" fill="#D9D9D9"/>
<rect id="Rectangle 1183" x="512.223" y="-143" width="1" height="872" transform="rotate(30 512.223 -143)" fill="#D9D9D9"/>
<rect id="Rectangle 1184" x="518.285" y="-139.5" width="1" height="872" transform="rotate(30 518.285 -139.5)" fill="#D9D9D9"/>
<rect id="Rectangle 1185" x="524.347" y="-136" width="1" height="872" transform="rotate(30 524.347 -136)" fill="#D9D9D9"/>
<rect id="Rectangle 1186" x="530.409" y="-132.5" width="1" height="872" transform="rotate(30 530.409 -132.5)" fill="#D9D9D9"/>
<rect id="Rectangle 1187" x="536.472" y="-129" width="1" height="872" transform="rotate(30 536.472 -129)" fill="#D9D9D9"/>
<rect id="Rectangle 1188" x="542.533" y="-125.5" width="1" height="872" transform="rotate(30 542.533 -125.5)" fill="#D9D9D9"/>
<rect id="Rectangle 1189" x="548.596" y="-122" width="1" height="872" transform="rotate(30 548.596 -122)" fill="#D9D9D9"/>
<rect id="Rectangle 1190" x="554.658" y="-118.5" width="1" height="872" transform="rotate(30 554.658 -118.5)" fill="#D9D9D9"/>
<rect id="Rectangle 1191" x="560.72" y="-115" width="1" height="872" transform="rotate(30 560.72 -115)" fill="#D9D9D9"/>
<rect id="Rectangle 1192" x="566.782" y="-111.5" width="1" height="872" transform="rotate(30 566.782 -111.5)" fill="#D9D9D9"/>
<rect id="Rectangle 1193" x="572.845" y="-108" width="1" height="872" transform="rotate(30 572.845 -108)" fill="#D9D9D9"/>
<rect id="Rectangle 1194" x="578.907" y="-104.5" width="1" height="872" transform="rotate(30 578.907 -104.5)" fill="#D9D9D9"/>
<rect id="Rectangle 1195" x="584.969" y="-101" width="1" height="872" transform="rotate(30 584.969 -101)" fill="#D9D9D9"/>
<rect id="Rectangle 1196" x="591.031" y="-97.5" width="1" height="872" transform="rotate(30 591.031 -97.5)" fill="#D9D9D9"/>
<rect id="Rectangle 1197" x="597.094" y="-94" width="1" height="872" transform="rotate(30 597.094 -94)" fill="#D9D9D9"/>
<rect id="Rectangle 1198" x="603.155" y="-90.5" width="1" height="872" transform="rotate(30 603.155 -90.5)" fill="#D9D9D9"/>
<rect id="Rectangle 1199" x="609.218" y="-87" width="1" height="872" transform="rotate(30 609.218 -87)" fill="#D9D9D9"/>
<rect id="Rectangle 1200" x="615.28" y="-83.5" width="1" height="872" transform="rotate(30 615.28 -83.5)" fill="#D9D9D9"/>
</g>
</g>
</g>
</g>
</g>
</g>
</g>
<defs>
<linearGradient id="paint0_linear_126_1893" x1="5" y1="16.6522" x2="292" y2="16.6522" gradientUnits="userSpaceOnUse">
<stop stop-color="#116EDB"/>
<stop offset="1" stop-color="#116EDB" stop-opacity="0"/>
</linearGradient>
<linearGradient id="paint1_linear_126_1893" x1="148.5" y1="2.34615" x2="148.5" y2="31" gradientUnits="userSpaceOnUse">
<stop stop-color="#409EFF"/>
<stop offset="0.494792" stop-color="#82BFFF"/>
<stop offset="1" stop-color="#409EFF"/>
</linearGradient>
<radialGradient id="paint2_radial_126_1893" cx="0" cy="0" r="1" gradientUnits="userSpaceOnUse" gradientTransform="translate(151.585 196) rotate(90) scale(171.359 303.641)">
<stop stop-color="#116EDB"/>
<stop offset="1" stop-color="#116EDB" stop-opacity="0"/>
</radialGradient>
<linearGradient id="paint3_linear_126_1893" x1="151.585" y1="40.3141" x2="151.585" y2="196" gradientUnits="userSpaceOnUse">
<stop stop-color="#409EFF"/>
<stop offset="0.494792" stop-color="#82BFFF"/>
<stop offset="1" stop-color="#409EFF"/>
</linearGradient>
<linearGradient id="paint4_linear_126_1893" x1="6" y1="166" x2="6" y2="274" gradientUnits="userSpaceOnUse">
<stop stop-color="#68B2FF"/>
<stop offset="1" stop-color="white"/>
</linearGradient>
<linearGradient id="paint5_linear_126_1893" x1="1" y1="0" x2="1" y2="108" gradientUnits="userSpaceOnUse">
<stop stop-color="#68B2FF"/>
<stop offset="1" stop-color="white"/>
</linearGradient>
<clipPath id="clip0_126_1893">
<rect width="287" height="163" fill="white" transform="translate(5 33)"/>
</clipPath>
</defs>
</svg>
